<svg width="207" height="207" viewBox="0 0 207 207" fill="none" xmlns="http://www.w3.org/2000/svg">
<path d="M175.104 40.5319C167.7 33.2914 159.219 27.2735 150.203 23.0578C136.474 16.6383 121.353 13.5445 106.23 13.3602C62.0325 12.8228 58.6679 64.7438 45.0792 71.9632C31.4901 79.1825 6.85997 80.0316 6.01044 108.908C5.47596 127.071 9.71615 145.747 21.6385 159.898C32.5586 172.859 48.6011 179.428 64.406 184.281C82.1546 189.731 100.977 195.077 119.647 191.4C138.806 187.626 152.266 172.455 168 162.204C177.907 155.75 186.799 148.953 192.915 138.595C193.646 137.358 194.332 136.094 194.984 134.813C203.172 118.718 204.778 100.154 200.262 82.7379C196.21 67.1094 187.062 52.2261 175.104 40.5319Z" fill="#FC6011" fill-opacity="0.7"/>
<path opacity="0.7" d="M175.104 40.5319C167.7 33.2914 159.219 27.2735 150.203 23.0578C136.474 16.6383 121.353 13.5445 106.23 13.3602C62.0325 12.8228 58.6679 64.7438 45.0792 71.9632C31.4901 79.1825 6.85997 80.0316 6.01044 108.908C5.47596 127.071 9.71615 145.747 21.6385 159.898C32.5586 172.859 48.6011 179.428 64.406 184.281C82.1546 189.731 100.977 195.077 119.647 191.4C138.806 187.626 152.266 172.455 168 162.204C177.907 155.75 186.799 148.953 192.915 138.595C193.646 137.358 194.332 136.094 194.984 134.813C203.172 118.718 204.778 100.154 200.262 82.7379C196.21 67.1094 187.062 52.2261 175.104 40.5319Z" fill="white"/>
<g opacity="0.3">
<path d="M157.29 20.9567C158.266 28.9862 160.125 40.6908 161.229 41.0584C162.84 41.5954 173.58 41.5954 173.58 41.5954C173.58 41.5954 174.923 93.6882 176.265 94.2251C177.608 94.7621 181.636 95.0308 182.71 93.6882C183.32 92.9256 181.677 76.2178 180.144 61.9278" stroke="black" stroke-miterlimit="10" stroke-linecap="round" stroke-linejoin="round"/>
<path d="M185.414 17.7627C184.113 12.8489 182.979 8.836 182.979 8.836C182.979 8.836 156.933 11.5212 156.664 13.6694C156.601 14.1725 156.73 15.9137 156.984 18.2918" stroke="black" stroke-miterlimit="10" stroke-linecap="round" stroke-linejoin="round"/>
<path d="M179.797 58.711C178.769 49.2602 177.877 41.5954 177.877 41.5954C177.877 41.5954 188.349 37.2989 189.155 35.4194C189.583 34.42 187.809 26.9655 186.054 20.2045" stroke="black" stroke-miterlimit="10" stroke-linecap="round" stroke-linejoin="round"/>
<path d="M168.615 32.073L168.951 33.8917C169.167 35.0629 168.392 36.1878 167.221 36.4039C166.05 36.62 164.925 35.8454 164.709 34.6742L161.676 18.2375C161.46 17.0663 162.234 15.9415 163.406 15.7254C164.577 15.5093 165.702 16.2835 165.918 17.4551L167.93 28.359" stroke="black" stroke-miterlimit="10" stroke-linecap="round" stroke-linejoin="round"/>
<path d="M174.949 34.966C173.777 35.1822 172.653 34.408 172.436 33.2363L169.404 16.7997C169.188 15.6285 169.962 14.5037 171.134 14.2876C172.305 14.0715 173.43 14.8461 173.646 16.0173L176.678 32.4539C176.894 33.6251 176.12 34.7499 174.949 34.966Z" stroke="black" stroke-miterlimit="10" stroke-linecap="round" stroke-linejoin="round"/>
<path d="M178.803 24.4214L177.132 15.3619C176.916 14.1907 177.69 13.0658 178.862 12.8497C180.033 12.6336 181.158 13.4078 181.374 14.5794L184.406 31.016C184.623 32.1872 183.848 33.3121 182.677 33.5282C181.505 33.7443 180.381 32.9701 180.165 31.7985L179.264 26.9187" stroke="black" stroke-miterlimit="10" stroke-linecap="round" stroke-linejoin="round"/>
</g>
<g opacity="0.3">
<path d="M167.598 111.765C167.598 111.765 167.952 110.703 166.713 108.049C165.475 105.395 161.582 103.449 161.582 103.449C161.582 103.449 161.228 102.033 162.998 101.856C164.767 101.68 166.89 103.979 167.952 105.926C169.013 107.872 169.898 111.587 169.898 111.587C169.898 111.587 171.49 109.641 173.79 109.464C176.09 109.288 179.452 110.349 179.452 110.349L174.498 112.472L173.26 112.826" stroke="black" stroke-miterlimit="10" stroke-linecap="round" stroke-linejoin="round"/>
<path d="M173.083 114.065C173.083 114.065 175.029 113.711 176.09 115.126C177.152 116.542 179.098 119.726 179.098 119.726C179.098 119.726 174.321 118.488 172.375 117.78C170.428 117.073 169.19 114.595 169.19 114.595L166.536 118.488L161.759 120.788L163.882 115.126L164.943 112.826C164.943 112.826 163.528 113.71 162.466 113.71C161.405 113.71 158.22 114.241 158.22 114.241C158.22 114.241 162.289 110.349 163.882 109.995C165.474 109.641 166.713 110.349 166.713 110.349" stroke="black" stroke-miterlimit="10" stroke-linecap="round" stroke-linejoin="round"/>
<path d="M159.105 110.88C159.105 110.88 155.389 111.588 153.62 119.727C151.851 127.866 160.698 136.004 167.598 136.889C174.498 137.773 181.398 136.181 185.114 126.627C188.83 117.073 183.875 110.526 181.221 108.403" stroke="black" stroke-miterlimit="10" stroke-linecap="round" stroke-linejoin="round"/>
<path d="M178.921 107.341C178.921 107.341 176.444 105.041 170.075 106.103" stroke="black" stroke-miterlimit="10" stroke-linecap="round" stroke-linejoin="round"/>
</g>
<g opacity="0.3">
<path d="M158.011 144.783C158.011 144.783 158.264 144.025 157.379 142.129C156.494 140.234 153.714 138.844 153.714 138.844C153.714 138.844 153.462 137.833 154.725 137.706C155.989 137.58 157.505 139.223 158.263 140.613C159.021 142.002 159.653 144.656 159.653 144.656C159.653 144.656 160.79 143.266 162.433 143.14C164.076 143.013 166.476 143.771 166.476 143.771L162.938 145.288L162.054 145.541" stroke="black" stroke-miterlimit="10" stroke-linecap="round" stroke-linejoin="round"/>
<path d="M161.928 146.426C161.928 146.426 163.318 146.173 164.076 147.184C164.834 148.195 166.224 150.469 166.224 150.469C166.224 150.469 162.813 149.584 161.422 149.079C160.032 148.574 159.148 146.805 159.148 146.805L157.252 149.585L153.841 151.228L155.357 147.184L156.115 145.541C156.115 145.541 155.104 146.173 154.346 146.173C153.588 146.173 151.314 146.552 151.314 146.552C151.314 146.552 154.22 143.772 155.357 143.52C156.494 143.267 157.379 143.772 157.379 143.772" stroke="black" stroke-miterlimit="10" stroke-linecap="round" stroke-linejoin="round"/>
<path d="M151.945 144.151C151.945 144.151 149.292 144.656 148.028 150.469C146.765 156.281 153.083 162.094 158.011 162.726C162.939 163.358 167.867 162.221 170.521 155.397C173.175 148.573 169.636 143.898 167.741 142.382" stroke="black" stroke-miterlimit="10" stroke-linecap="round" stroke-linejoin="round"/>
<path d="M166.098 141.624C166.098 141.624 164.329 139.981 159.78 140.739" stroke="black" stroke-miterlimit="10" stroke-linecap="round" stroke-linejoin="round"/>
</g>
<g opacity="0.3">
<path d="M192.171 147.283C192.171 147.283 192.876 147.392 194.412 146.331C195.947 145.27 196.756 142.617 196.756 142.617C196.756 142.617 197.607 142.244 197.907 143.336C198.207 144.429 196.987 146.009 195.878 146.883C194.768 147.757 192.527 148.709 192.527 148.709C192.527 148.709 193.92 149.502 194.277 150.929C194.633 152.356 194.324 154.581 194.324 154.581L192.462 151.694L192.108 150.954" stroke="black" stroke-miterlimit="10" stroke-linecap="round" stroke-linejoin="round"/>
<path d="M191.311 150.975C191.311 150.975 191.74 152.16 190.964 152.978C190.188 153.796 188.394 155.358 188.394 155.358C188.394 155.358 188.663 152.224 188.9 150.926C189.138 149.628 190.562 148.585 190.562 148.585L187.833 147.333L185.879 144.576L189.663 145.307L191.221 145.728C191.221 145.728 190.515 144.933 190.402 144.266C190.288 143.599 189.615 141.654 189.615 141.654C189.615 141.654 192.495 143.797 192.887 144.76C193.279 145.723 192.967 146.576 192.967 146.576" stroke="black" stroke-miterlimit="10" stroke-linecap="round" stroke-linejoin="round"/>
<path d="M191.822 141.852C191.822 141.852 190.981 139.593 185.678 139.348C180.375 139.104 176.204 145.53 176.383 149.961C176.563 154.391 178.299 158.557 184.699 159.874C191.098 161.19 194.684 157.38 195.735 155.486" stroke="black" stroke-miterlimit="10" stroke-linecap="round" stroke-linejoin="round"/>
<path d="M196.158 153.927C196.158 153.927 197.339 152.125 195.993 148.236" stroke="black" stroke-miterlimit="10" stroke-linecap="round" stroke-linejoin="round"/>
</g>
<g opacity="0.3">
<path d="M171.453 169.436C171.453 169.436 160.731 164.248 159.693 168.053C158.656 171.857 163.844 173.24 164.535 177.391C165.227 181.541 168.686 184.308 173.527 183.27C178.369 182.233 181.136 175.661 178.715 171.857" stroke="black" stroke-miterlimit="10" stroke-linecap="round" stroke-linejoin="round"/>
<path d="M165.919 183.616C165.919 183.616 164.189 182.924 163.844 187.42C163.498 191.916 171.107 196.412 176.986 194.337C182.866 192.262 189.783 186.383 184.941 175.661" stroke="black" stroke-miterlimit="10" stroke-linecap="round" stroke-linejoin="round"/>
<path d="M163.77 185.14C163.77 185.14 159.777 184.696 158.594 188.837C157.411 192.978 161.108 197.119 167.171 197.858C173.235 198.598 178.706 194.457 178.706 194.457" stroke="black" stroke-miterlimit="10" stroke-linecap="round" stroke-linejoin="round"/>
<path d="M161.551 184.253C161.551 184.253 159.925 182.626 158.15 182.33C156.376 182.035 153.27 178.633 153.27 177.007C153.27 175.38 150.164 175.232 148.981 178.633C147.798 182.035 148.39 188.837 150.904 192.386C153.418 195.935 157.558 198.154 161.256 197.858" stroke="black" stroke-miterlimit="10" stroke-linecap="round" stroke-linejoin="round"/>
<path d="M167.615 183.366C167.615 183.366 173.382 186.323 177.671 183.661C181.959 180.999 181.516 176.711 180.628 173.605" stroke="black" stroke-miterlimit="10" stroke-linecap="round" stroke-linejoin="round"/>
<path d="M159.481 185.436C159.481 185.436 156.227 187.211 156.227 191.795C156.227 196.38 162.882 197.859 162.882 197.859" stroke="black" stroke-miterlimit="10" stroke-linecap="round" stroke-linejoin="round"/>
<path d="M173.234 169.464C173.234 169.464 176.034 169.733 177.375 170.795" stroke="black" stroke-miterlimit="10" stroke-linecap="round" stroke-linejoin="round"/>
</g>
<g opacity="0.3">
<path d="M133.51 196.461C133.51 196.461 144.805 192.682 142.889 189.235C140.973 185.789 136.295 188.423 132.9 185.938C129.506 183.452 125.098 183.889 122.359 188.014C119.62 192.139 122.231 198.774 126.621 199.804" stroke="black" stroke-miterlimit="10" stroke-linecap="round" stroke-linejoin="round"/>
<path d="M127.561 182.45C127.561 182.45 129.282 181.737 126.388 178.279C123.494 174.821 114.909 176.92 112.152 182.512C109.396 188.105 108.555 197.144 119.51 201.432" stroke="black" stroke-miterlimit="10" stroke-linecap="round" stroke-linejoin="round"/>
<path d="M128.034 179.858C128.034 179.858 131.201 177.386 129.154 173.597C127.107 169.808 121.569 169.429 116.715 173.136C111.86 176.843 110.839 183.628 110.839 183.628" stroke="black" stroke-miterlimit="10" stroke-linecap="round" stroke-linejoin="round"/>
<path d="M130.241 178.943C130.241 178.943 132.542 178.971 134.018 177.942C135.494 176.914 140.092 177.177 141.229 178.341C142.365 179.505 144.691 177.441 143.16 174.181C141.63 170.921 136.454 166.467 132.176 165.685C127.897 164.902 123.385 166.208 120.947 169.003" stroke="black" stroke-miterlimit="10" stroke-linecap="round" stroke-linejoin="round"/>
<path d="M126.523 183.814C126.523 183.814 120.33 185.728 119.122 190.629C117.913 195.53 121.227 198.288 124.032 199.89" stroke="black" stroke-miterlimit="10" stroke-linecap="round" stroke-linejoin="round"/>
<path d="M130.896 176.65C130.896 176.65 131.983 173.107 128.78 169.827C125.577 166.547 119.783 170.139 119.783 170.139" stroke="black" stroke-miterlimit="10" stroke-linecap="round" stroke-linejoin="round"/>
<path d="M132.215 197.686C132.215 197.686 130.024 199.45 128.323 199.627" stroke="black" stroke-miterlimit="10" stroke-linecap="round" stroke-linejoin="round"/>
</g>
<g opacity="0.3">
<path d="M30.2882 124.82C35.0173 122.609 40.2942 121.374 45.8596 121.374C66.1886 121.374 82.6683 137.854 82.6683 158.183C82.6683 168.478 78.4414 177.786 71.6286 184.467" stroke="black" stroke-miterlimit="10" stroke-linecap="round" stroke-linejoin="round"/>
<path d="M69.5897 186.322C63.1822 191.731 54.9013 194.992 45.8596 194.992C25.5305 194.992 9.05084 178.512 9.05084 158.183C9.05084 144.273 16.767 132.164 28.1532 125.905" stroke="black" stroke-miterlimit="10" stroke-linecap="round" stroke-linejoin="round"/>
<path d="M70.0629 162.25C68.1249 173.867 58.0262 182.722 45.8596 182.722C40.3865 182.722 35.3324 180.93 31.2508 177.901" stroke="black" stroke-miterlimit="10" stroke-linecap="round" stroke-linejoin="round"/>
<path d="M28.9013 175.919C24.2302 171.452 21.321 165.157 21.321 158.183C21.321 144.631 32.3073 133.644 45.86 133.644C59.002 133.644 69.7313 143.975 70.3688 156.959" stroke="black" stroke-miterlimit="10" stroke-linecap="round" stroke-linejoin="round"/>
<path d="M33.9608 148.072H43.1181C43.932 148.072 44.5919 148.732 44.5919 149.545V154.257" stroke="black" stroke-miterlimit="10" stroke-linecap="round" stroke-linejoin="round"/>
<path d="M44.5919 157.071V167.15C44.5919 167.964 43.932 168.624 43.1181 168.624H27.7587C26.9448 168.624 26.2849 167.964 26.2849 167.15V149.545C26.2849 148.731 26.9448 148.071 27.7587 148.071H31.5687" stroke="black" stroke-miterlimit="10" stroke-linecap="round" stroke-linejoin="round"/>
<path d="M30.0195 151.459C30.0195 151.705 29.8208 151.904 29.5753 151.904C29.3298 151.904 29.1311 151.705 29.1311 151.459C29.1311 151.214 29.3298 151.015 29.5753 151.015C29.8204 151.015 30.0195 151.214 30.0195 151.459Z" stroke="black" stroke-miterlimit="10" stroke-linecap="round" stroke-linejoin="round"/>
<path d="M33.6636 151.904C33.9089 151.904 34.1078 151.705 34.1078 151.459C34.1078 151.214 33.9089 151.015 33.6636 151.015C33.4182 151.015 33.2194 151.214 33.2194 151.459C33.2194 151.705 33.4182 151.904 33.6636 151.904Z" stroke="black" stroke-miterlimit="10" stroke-linecap="round" stroke-linejoin="round"/>
<path d="M37.7518 151.904C37.9972 151.904 38.1961 151.705 38.1961 151.459C38.1961 151.214 37.9972 151.015 37.7518 151.015C37.5065 151.015 37.3076 151.214 37.3076 151.459C37.3076 151.705 37.5065 151.904 37.7518 151.904Z" stroke="black" stroke-miterlimit="10" stroke-linecap="round" stroke-linejoin="round"/>
<path d="M41.8401 151.904C42.0854 151.904 42.2843 151.705 42.2843 151.459C42.2843 151.214 42.0854 151.015 41.8401 151.015C41.5948 151.015 41.3959 151.214 41.3959 151.459C41.3959 151.705 41.5948 151.904 41.8401 151.904Z" stroke="black" stroke-miterlimit="10" stroke-linecap="round" stroke-linejoin="round"/>
<path d="M30.0195 154.961C30.0195 155.206 29.8208 155.405 29.5753 155.405C29.3298 155.405 29.1311 155.206 29.1311 154.961C29.1311 154.715 29.3298 154.516 29.5753 154.516C29.8204 154.516 30.0195 154.715 30.0195 154.961Z" stroke="black" stroke-miterlimit="10" stroke-linecap="round" stroke-linejoin="round"/>
<path d="M34.1078 154.961C34.1078 155.206 33.9087 155.405 33.6636 155.405C33.4185 155.405 33.2194 155.206 33.2194 154.961C33.2194 154.715 33.4185 154.516 33.6636 154.516C33.9087 154.516 34.1078 154.715 34.1078 154.961Z" stroke="black" stroke-miterlimit="10" stroke-linecap="round" stroke-linejoin="round"/>
<path d="M38.1961 154.961C38.1961 155.206 37.9969 155.405 37.7518 155.405C37.5063 155.405 37.3076 155.206 37.3076 154.961C37.3076 154.715 37.5068 154.516 37.7518 154.516C37.9973 154.516 38.1961 154.715 38.1961 154.961Z" stroke="black" stroke-miterlimit="10" stroke-linecap="round" stroke-linejoin="round"/>
<path d="M42.2843 154.961C42.2843 155.206 42.0852 155.405 41.8401 155.405C41.5946 155.405 41.3959 155.206 41.3959 154.961C41.3959 154.715 41.595 154.516 41.8401 154.516C42.0856 154.516 42.2843 154.715 42.2843 154.961Z" stroke="black" stroke-miterlimit="10" stroke-linecap="round" stroke-linejoin="round"/>
<path d="M30.0195 158.462C30.0195 158.707 29.8208 158.906 29.5753 158.906C29.3298 158.906 29.1311 158.707 29.1311 158.462C29.1311 158.216 29.3298 158.018 29.5753 158.018C29.8204 158.018 30.0195 158.216 30.0195 158.462Z" stroke="black" stroke-miterlimit="10" stroke-linecap="round" stroke-linejoin="round"/>
<path d="M34.1078 158.462C34.1078 158.707 33.9087 158.906 33.6636 158.906C33.4185 158.906 33.2194 158.707 33.2194 158.462C33.2194 158.216 33.4185 158.018 33.6636 158.018C33.9087 158.018 34.1078 158.216 34.1078 158.462Z" stroke="black" stroke-miterlimit="10" stroke-linecap="round" stroke-linejoin="round"/>
<path d="M38.1961 158.462C38.1961 158.707 37.9969 158.906 37.7518 158.906C37.5063 158.906 37.3076 158.707 37.3076 158.462C37.3076 158.216 37.5068 158.018 37.7518 158.018C37.9973 158.018 38.1961 158.216 38.1961 158.462Z" stroke="black" stroke-miterlimit="10" stroke-linecap="round" stroke-linejoin="round"/>
<path d="M42.2843 158.462C42.2843 158.707 42.0852 158.906 41.8401 158.906C41.5946 158.906 41.3959 158.707 41.3959 158.462C41.3959 158.216 41.595 158.018 41.8401 158.018C42.0856 158.018 42.2843 158.216 42.2843 158.462Z" stroke="black" stroke-miterlimit="10" stroke-linecap="round" stroke-linejoin="round"/>
<path d="M30.0195 161.964C30.0195 162.209 29.8208 162.408 29.5753 162.408C29.3298 162.408 29.1311 162.209 29.1311 161.964C29.1311 161.718 29.3298 161.519 29.5753 161.519C29.8204 161.519 30.0195 161.718 30.0195 161.964Z" stroke="black" stroke-miterlimit="10" stroke-linecap="round" stroke-linejoin="round"/>
<path d="M33.6636 162.408C33.9089 162.408 34.1078 162.209 34.1078 161.964C34.1078 161.718 33.9089 161.519 33.6636 161.519C33.4182 161.519 33.2194 161.718 33.2194 161.964C33.2194 162.209 33.4182 162.408 33.6636 162.408Z" stroke="black" stroke-miterlimit="10" stroke-linecap="round" stroke-linejoin="round"/>
<path d="M37.7518 162.408C37.9972 162.408 38.1961 162.209 38.1961 161.964C38.1961 161.718 37.9972 161.519 37.7518 161.519C37.5065 161.519 37.3076 161.718 37.3076 161.964C37.3076 162.209 37.5065 162.408 37.7518 162.408Z" stroke="black" stroke-miterlimit="10" stroke-linecap="round" stroke-linejoin="round"/>
<path d="M41.8401 162.408C42.0854 162.408 42.2843 162.209 42.2843 161.964C42.2843 161.718 42.0854 161.519 41.8401 161.519C41.5948 161.519 41.3959 161.718 41.3959 161.964C41.3959 162.209 41.5948 162.408 41.8401 162.408Z" stroke="black" stroke-miterlimit="10" stroke-linecap="round" stroke-linejoin="round"/>
<path d="M30.0195 165.465C30.0195 165.71 29.8208 165.909 29.5753 165.909C29.3298 165.909 29.1311 165.71 29.1311 165.465C29.1311 165.22 29.3298 165.021 29.5753 165.021C29.8204 165.021 30.0195 165.219 30.0195 165.465Z" stroke="black" stroke-miterlimit="10" stroke-linecap="round" stroke-linejoin="round"/>
<path d="M33.6636 165.909C33.9089 165.909 34.1078 165.71 34.1078 165.465C34.1078 165.219 33.9089 165.021 33.6636 165.021C33.4182 165.021 33.2194 165.219 33.2194 165.465C33.2194 165.71 33.4182 165.909 33.6636 165.909Z" stroke="black" stroke-miterlimit="10" stroke-linecap="round" stroke-linejoin="round"/>
<path d="M37.7518 165.909C37.9972 165.909 38.1961 165.71 38.1961 165.465C38.1961 165.219 37.9972 165.021 37.7518 165.021C37.5065 165.021 37.3076 165.219 37.3076 165.465C37.3076 165.71 37.5065 165.909 37.7518 165.909Z" stroke="black" stroke-miterlimit="10" stroke-linecap="round" stroke-linejoin="round"/>
<path d="M41.8401 165.909C42.0854 165.909 42.2843 165.71 42.2843 165.465C42.2843 165.219 42.0854 165.021 41.8401 165.021C41.5948 165.021 41.3959 165.219 41.3959 165.465C41.3959 165.71 41.5948 165.909 41.8401 165.909Z" stroke="black" stroke-miterlimit="10" stroke-linecap="round" stroke-linejoin="round"/>
<path d="M51.3964 170.033L46.3907 166.762C45.7093 166.317 45.518 165.403 45.9631 164.722L55.5935 149.984C56.0386 149.303 56.9519 149.112 57.6333 149.557L70.4909 157.958C71.1724 158.403 71.3636 159.317 70.9186 159.998L61.2881 174.736C60.8431 175.417 59.9298 175.608 59.2483 175.163L53.6825 171.526" stroke="black" stroke-miterlimit="10" stroke-linecap="round" stroke-linejoin="round"/>
<path d="M57.6731 153.63C57.5389 153.835 57.2632 153.893 57.0578 153.758C56.8525 153.624 56.7945 153.349 56.9291 153.143C57.0632 152.938 57.3385 152.88 57.5443 153.014C57.7496 153.148 57.8072 153.424 57.6731 153.63Z" stroke="black" stroke-miterlimit="10" stroke-linecap="round" stroke-linejoin="round"/>
<path d="M61.0956 155.866C60.9615 156.071 60.6857 156.129 60.4804 155.995C60.275 155.861 60.2171 155.585 60.3516 155.38C60.4858 155.174 60.7611 155.116 60.9668 155.251C61.1722 155.385 61.2297 155.66 61.0956 155.866Z" stroke="black" stroke-miterlimit="10" stroke-linecap="round" stroke-linejoin="round"/>
<path d="M64.5177 158.102C64.3836 158.308 64.1083 158.366 63.9025 158.231C63.6972 158.097 63.6392 157.822 63.7738 157.616C63.9079 157.411 64.1836 157.353 64.389 157.487C64.5943 157.621 64.6523 157.897 64.5177 158.102Z" stroke="black" stroke-miterlimit="10" stroke-linecap="round" stroke-linejoin="round"/>
<path d="M67.9403 160.339C67.8061 160.544 67.5304 160.602 67.3251 160.468C67.1197 160.333 67.0618 160.058 67.1963 159.852C67.3304 159.647 67.6062 159.589 67.8115 159.724C68.0169 159.858 68.0744 160.133 67.9403 160.339Z" stroke="black" stroke-miterlimit="10" stroke-linecap="round" stroke-linejoin="round"/>
<path d="M55.7579 156.561C55.6238 156.766 55.3484 156.824 55.1427 156.689C54.9373 156.555 54.8794 156.28 55.0139 156.074C55.1481 155.869 55.4238 155.811 55.6291 155.946C55.8341 156.08 55.892 156.355 55.7579 156.561Z" stroke="black" stroke-miterlimit="10" stroke-linecap="round" stroke-linejoin="round"/>
<path d="M59.18 158.797C59.0459 159.003 58.7701 159.06 58.5648 158.926C58.3595 158.792 58.3015 158.516 58.436 158.311C58.5702 158.105 58.8455 158.047 59.0513 158.182C59.2566 158.316 59.3146 158.591 59.18 158.797Z" stroke="black" stroke-miterlimit="10" stroke-linecap="round" stroke-linejoin="round"/>
<path d="M62.6026 161.034C62.4684 161.239 62.1927 161.297 61.9873 161.162C61.782 161.028 61.724 160.753 61.8586 160.547C61.9927 160.342 62.268 160.284 62.4738 160.418C62.6791 160.553 62.7367 160.828 62.6026 161.034Z" stroke="black" stroke-miterlimit="10" stroke-linecap="round" stroke-linejoin="round"/>
<path d="M66.0251 163.27C65.891 163.475 65.6157 163.533 65.4099 163.398C65.2045 163.264 65.1466 162.988 65.2811 162.783C65.4153 162.578 65.691 162.52 65.8963 162.654C66.1017 162.789 66.1592 163.064 66.0251 163.27Z" stroke="black" stroke-miterlimit="10" stroke-linecap="round" stroke-linejoin="round"/>
<path d="M53.8423 159.492C53.7082 159.697 53.4324 159.755 53.2271 159.621C53.0217 159.486 52.9638 159.211 53.0983 159.005C53.2325 158.8 53.5078 158.742 53.7135 158.877C53.9189 159.011 53.9769 159.286 53.8423 159.492Z" stroke="black" stroke-miterlimit="10" stroke-linecap="round" stroke-linejoin="round"/>
<path d="M57.2648 161.728C57.1307 161.933 56.8554 161.991 56.6496 161.857C56.4443 161.722 56.3863 161.447 56.5209 161.241C56.655 161.036 56.9307 160.978 57.1361 161.113C57.3414 161.247 57.399 161.522 57.2648 161.728Z" stroke="black" stroke-miterlimit="10" stroke-linecap="round" stroke-linejoin="round"/>
<path d="M60.6874 163.964C60.5533 164.17 60.2779 164.228 60.0722 164.093C59.8668 163.959 59.8089 163.683 59.9434 163.478C60.0776 163.272 60.3533 163.215 60.5586 163.349C60.764 163.484 60.8215 163.759 60.6874 163.964Z" stroke="black" stroke-miterlimit="10" stroke-linecap="round" stroke-linejoin="round"/>
<path d="M64.1099 166.201C63.9758 166.406 63.7001 166.464 63.4947 166.329C63.2894 166.195 63.2314 165.92 63.366 165.714C63.5001 165.509 63.7754 165.451 63.9812 165.586C64.1861 165.72 64.2441 165.995 64.1099 166.201Z" stroke="black" stroke-miterlimit="10" stroke-linecap="round" stroke-linejoin="round"/>
<path d="M51.9271 162.423C51.793 162.628 51.5177 162.686 51.3119 162.551C51.1066 162.417 51.0486 162.141 51.1832 161.936C51.3173 161.731 51.593 161.673 51.7984 161.807C52.0037 161.942 52.0613 162.217 51.9271 162.423Z" stroke="black" stroke-miterlimit="10" stroke-linecap="round" stroke-linejoin="round"/>
<path d="M55.3497 164.659C55.2156 164.864 54.9398 164.922 54.7345 164.788C54.5291 164.654 54.4712 164.378 54.6057 164.173C54.7399 163.967 55.0152 163.909 55.2209 164.044C55.4263 164.178 55.4838 164.454 55.3497 164.659Z" stroke="black" stroke-miterlimit="10" stroke-linecap="round" stroke-linejoin="round"/>
<path d="M58.7718 166.895C58.6377 167.101 58.3619 167.159 58.1566 167.024C57.9513 166.89 57.8933 166.615 58.0278 166.409C58.162 166.204 58.4373 166.146 58.643 166.28C58.8484 166.415 58.9064 166.69 58.7718 166.895Z" stroke="black" stroke-miterlimit="10" stroke-linecap="round" stroke-linejoin="round"/>
<path d="M62.1943 169.132C62.0602 169.337 61.7849 169.395 61.5791 169.261C61.3738 169.127 61.3158 168.851 61.4504 168.645C61.5845 168.44 61.8603 168.382 62.0656 168.517C62.2709 168.651 62.3285 168.927 62.1943 169.132Z" stroke="black" stroke-miterlimit="10" stroke-linecap="round" stroke-linejoin="round"/>
<path d="M50.012 165.354C49.8778 165.559 49.6025 165.617 49.3968 165.482C49.1914 165.348 49.1335 165.073 49.268 164.867C49.4022 164.662 49.6779 164.604 49.8832 164.738C50.0886 164.873 50.1461 165.148 50.012 165.354Z" stroke="black" stroke-miterlimit="10" stroke-linecap="round" stroke-linejoin="round"/>
<path d="M53.4341 167.59C53.3 167.795 53.0247 167.853 52.8189 167.719C52.6135 167.585 52.5556 167.309 52.6901 167.104C52.8243 166.898 53.0996 166.84 53.3053 166.975C53.5107 167.109 53.5686 167.385 53.4341 167.59Z" stroke="black" stroke-miterlimit="10" stroke-linecap="round" stroke-linejoin="round"/>
<path d="M56.8566 169.827C56.7225 170.032 56.4468 170.09 56.2414 169.955C56.0361 169.821 55.9781 169.545 56.1127 169.34C56.2468 169.135 56.5221 169.077 56.7279 169.211C56.9332 169.346 56.9908 169.621 56.8566 169.827Z" stroke="black" stroke-miterlimit="10" stroke-linecap="round" stroke-linejoin="round"/>
<path d="M60.2792 172.063C60.1451 172.268 59.8693 172.326 59.664 172.192C59.4586 172.058 59.4007 171.782 59.5352 171.576C59.6694 171.371 59.9447 171.313 60.1504 171.448C60.3558 171.582 60.4133 171.858 60.2792 172.063Z" stroke="black" stroke-miterlimit="10" stroke-linecap="round" stroke-linejoin="round"/>
</g>
<g opacity="0.3">
<path d="M37.8061 75.6126L44.6905 72.2972L51.2139 85.8433C55.1663 94.0509 51.7169 103.909 43.5093 107.862C35.3018 111.814 25.4436 108.365 21.4912 100.157L19.3057 95.6191" stroke="black" stroke-miterlimit="10" stroke-linecap="round" stroke-linejoin="round"/>
<path d="M18.6602 94.2778L14.9678 86.6109L36.1965 76.388" stroke="black" stroke-miterlimit="10" stroke-linecap="round" stroke-linejoin="round"/>
<path d="M56.7064 93.3748C55.4487 93.8609 54.1243 94.0132 52.8268 93.8662" stroke="black" stroke-miterlimit="10" stroke-linecap="round" stroke-linejoin="round"/>
<path d="M47.1207 77.3423C47.6949 76.8173 48.3482 76.3698 49.0752 76.0195C53.4317 73.9214 58.8108 76.0456 61.0849 80.7677C62.9872 84.7177 62.1104 89.2365 59.2186 91.8343" stroke="black" stroke-miterlimit="10" stroke-linecap="round" stroke-linejoin="round"/>
<path d="M48.8793 80.9937C49.348 80.3454 49.9673 79.808 50.7245 79.4437C53.3356 78.1864 56.559 79.4598 57.9223 82.2912C59.284 85.1184 58.2701 88.4329 55.659 89.6902C54.6778 90.1626 53.6155 90.2748 52.5921 90.0872" stroke="black" stroke-miterlimit="10" stroke-linecap="round" stroke-linejoin="round"/>
<path d="M23.4705 92.1816C27.1849 92.6428 26.4174 94.8366 23.2254 92.8817C22.7642 96.5961 20.5704 95.8286 22.5253 92.6366C18.8109 92.1754 19.5785 89.9816 22.7704 91.9365C23.232 88.2221 25.4258 88.9897 23.4705 92.1816Z" stroke="black" stroke-miterlimit="10" stroke-linecap="round" stroke-linejoin="round"/>
<path d="M29.0616 89.489C32.776 89.9506 32.0084 92.144 28.8165 90.1891C28.3549 93.9035 26.1615 93.1359 28.1164 89.944C24.402 89.4828 25.1696 87.289 28.3615 89.2439C28.8227 85.5299 31.0165 86.2975 29.0616 89.489Z" stroke="black" stroke-miterlimit="10" stroke-linecap="round" stroke-linejoin="round"/>
<path d="M34.6522 86.7968C38.3666 87.258 37.5991 89.4518 34.4071 87.4969C33.9459 91.2113 31.7521 90.4437 33.707 87.2518C29.9926 86.7902 30.7602 84.5968 33.9521 86.5517C34.4133 82.8373 36.6075 83.6053 34.6522 86.7968Z" stroke="black" stroke-miterlimit="10" stroke-linecap="round" stroke-linejoin="round"/>
<path d="M40.2429 84.1045C43.9573 84.5657 43.1898 86.7595 39.9978 84.8046C39.5362 88.519 37.3424 87.7514 39.2977 84.5595C35.5833 84.0983 36.3509 81.9045 39.5428 83.8594C40.0044 80.145 42.1982 80.9125 40.2429 84.1045Z" stroke="black" stroke-miterlimit="10" stroke-linecap="round" stroke-linejoin="round"/>
<path d="M45.8335 81.4119C49.548 81.873 48.7804 84.0668 45.5885 82.1119C45.1273 85.8263 42.9335 85.0588 44.8884 81.8668C41.174 81.4056 41.9415 79.2119 45.1335 81.1668C45.5951 77.4528 47.7889 78.2203 45.8335 81.4119Z" stroke="black" stroke-miterlimit="10" stroke-linecap="round" stroke-linejoin="round"/>
<path d="M16.1514 55.1171C14.3906 55.4516 12.9971 55.9881 12.4796 56.2179" stroke="black" stroke-miterlimit="10" stroke-linecap="round" stroke-linejoin="round"/>
<path d="M22.2918 81.1258C22.2918 81.1258 20.1784 80.0693 24.556 74.3329C28.9336 68.5965 29.6884 61.6525 25.4618 57.2749C23.5595 55.3046 21.0151 54.7714 18.6681 54.836" stroke="black" stroke-miterlimit="10" stroke-linecap="round" stroke-linejoin="round"/>
<path d="M32.3847 65.6973C30.7362 69.3131 27.8771 72.4831 28.33 74.6343C28.9336 77.5025 34.0664 76.4459 34.0664 76.4459" stroke="black" stroke-miterlimit="10" stroke-linecap="round" stroke-linejoin="round"/>
<path d="M28.6318 54.2556C28.6318 54.2556 33.9153 56.8219 33.4624 61.9543C33.4185 62.4528 33.3287 62.9475 33.2032 63.436" stroke="black" stroke-miterlimit="10" stroke-linecap="round" stroke-linejoin="round"/>
</g>
<g opacity="0.3">
<path d="M61.3374 6.52714C61.3374 6.52714 58.3587 2.33415 51.8758 3.4917C45.393 4.64924 43.5097 12.5471 43.5097 12.5471C43.5097 12.5471 39.2646 11.0435 35.2355 15.0659C30.2332 20.06 32.6277 24.1234 32.6277 24.1234C32.6277 24.1234 25.9135 25.9756 24.9874 32.4584C24.0612 38.9413 26.1449 44.2666 34.48 45.8874C42.815 47.5082 45.8248 46.3502 45.8248 46.3502" stroke="black" stroke-miterlimit="10" stroke-linecap="round" stroke-linejoin="round"/>
<path d="M63.6529 8.84222C63.6529 8.84222 69.2096 14.3989 69.441 21.1132C69.6724 27.8274 68.7463 29.9115 68.7463 29.9115" stroke="black" stroke-miterlimit="10" stroke-linecap="round" stroke-linejoin="round"/>
<path d="M48.1403 44.498C48.1403 44.498 51.1501 32.2271 65.0419 30.3748" stroke="black" stroke-miterlimit="10" stroke-linecap="round" stroke-linejoin="round"/>
<path d="M48.1403 46.8135L58.3276 59.7791C58.3276 59.7791 59.8313 52.3238 76.1176 44.2061L68.9782 32.9217" stroke="black" stroke-miterlimit="10" stroke-linecap="round" stroke-linejoin="round"/>
<path d="M59.0732 60.0669C59.0732 60.0669 60.692 59.6678 64.9264 57.6048C70.3336 54.9705 77.8237 46.5771 77.0222 44.8723" stroke="black" stroke-miterlimit="10" stroke-linecap="round" stroke-linejoin="round"/>
<path d="M32.085 30.9093C32.085 30.9093 31.0719 24.6868 36.1368 23.3844" stroke="black" stroke-miterlimit="10" stroke-linecap="round" stroke-linejoin="round"/>
<path d="M41.636 16.0044C41.636 16.0044 42.7935 11.3738 48.727 11.6632" stroke="black" stroke-miterlimit="10" stroke-linecap="round" stroke-linejoin="round"/>
</g>
<path d="M95.9474 33.3038L98.6326 23.3687C98.6326 23.3687 104.54 25.7852 106.957 26.5908C109.373 27.3965 112.327 27.9334 112.327 27.9334L109.642 37.8686L95.9474 33.3038Z" fill="white" stroke="#263238" stroke-miterlimit="10" stroke-linecap="round" stroke-linejoin="round"/>
<path d="M117.16 40.0168L117.697 31.1556L127.632 33.0351V44.5816L117.16 40.0168Z" fill="white" stroke="#263238" stroke-miterlimit="10" stroke-linecap="round" stroke-linejoin="round"/>
<path d="M123.068 46.1925L126.559 34.1095L139.179 39.2112L134.077 48.0725L123.068 46.1925Z" fill="white" stroke="#263238" stroke-miterlimit="10" stroke-linecap="round" stroke-linejoin="round"/>
<path d="M44.9174 140.875L125.661 180.139C126.38 180.495 127.244 180.087 127.425 179.305L132.895 155.652L44.972 140.688C44.8569 140.667 44.8085 140.83 44.9174 140.875Z" fill="#263238"/>
<path d="M46.6562 141.486L126.406 177.193L129.274 164.725L46.7174 141.301C46.597 141.265 46.5382 141.443 46.6562 141.486Z" fill="white" stroke="#263238" stroke-miterlimit="10" stroke-linecap="round" stroke-linejoin="round"/>
<path d="M47.3583 141.692L126.735 175.977L129.274 164.725L47.4183 141.507C47.297 141.471 47.239 141.65 47.3583 141.692Z" fill="white" stroke="#263238" stroke-miterlimit="10" stroke-linecap="round" stroke-linejoin="round"/>
<path d="M44.0355 140.514L127.065 174.762L129.519 163.692L44.0355 140.514Z" fill="white" stroke="#263238" stroke-miterlimit="10" stroke-linecap="round" stroke-linejoin="round"/>
<path d="M47.5044 141.559L133.957 167.015L134.834 162.332L47.5558 141.371C47.4328 141.34 47.3831 141.523 47.5044 141.559Z" fill="white" stroke="#263238" stroke-miterlimit="10" stroke-linecap="round" stroke-linejoin="round"/>
<path d="M47.5375 141.523L134.808 166.153L135.685 161.47L47.5864 141.334C47.463 141.306 47.4158 141.488 47.5375 141.523Z" fill="white" stroke="#263238" stroke-miterlimit="10" stroke-linecap="round" stroke-linejoin="round"/>
<path d="M47.5694 141.491L135.616 165.384L136.493 160.701L47.6166 141.302C47.4924 141.275 47.4473 141.458 47.5694 141.491Z" fill="white" stroke="#263238" stroke-miterlimit="10" stroke-linecap="round" stroke-linejoin="round"/>
<path d="M138.275 162.147C137.991 163.264 136.855 163.941 135.738 163.658L44.1335 140.539C44.0797 140.526 44.0482 140.47 44.0639 140.417L78.553 23.1265L164.543 50.9257C165.592 51.2648 166.198 52.3611 165.926 53.43L138.275 162.147Z" fill="#FC6011" fill-opacity="0.7" stroke="#263238" stroke-miterlimit="10" stroke-linecap="round" stroke-linejoin="round"/>
<path d="M50.3296 142.125L44.1337 140.539C44.0798 140.526 44.0484 140.47 44.0641 140.417L78.5532 23.1265L84.9388 24.7609L50.4472 142.059C50.4323 142.109 50.3801 142.139 50.3296 142.125Z" fill="#263238" stroke="#263238" stroke-miterlimit="10" stroke-linecap="round" stroke-linejoin="round"/>
<path d="M92.5455 84.5699C92.5455 84.5699 89.5151 77.8589 84.2299 75.3186C78.9448 72.7787 79.0839 77.8001 82.5864 79.8838C86.0892 81.9675 91.1052 82.7764 92.5455 84.5699Z" fill="#263238"/>
<path d="M130.938 115.901C130.938 115.901 132.326 116.808 133.746 121.165C135.166 125.523 134.293 130.821 136.834 131.948C139.374 133.075 141.663 131.904 140.233 126.397C138.803 120.89 133.236 115.65 130.938 115.901Z" fill="#263238"/>
<path d="M86.8216 112.034C86.8216 112.034 85.1681 112.163 81.8296 115.302C78.4911 118.442 76.7101 123.507 73.9409 123.275C71.1716 123.043 69.7259 120.916 73.6262 116.773C77.5261 112.63 84.9268 110.71 86.8216 112.034Z" fill="#263238"/>
<path d="M133.619 83.0476C133.619 83.0476 133.941 81.6586 137.04 79.2247C140.139 76.7912 144.674 75.9297 144.834 73.5454C144.993 71.1612 143.372 69.6584 139.347 72.4405C135.323 75.2226 132.737 81.2665 133.619 83.0476Z" fill="#263238"/>
<path d="M102.283 142.504C99.9346 143.917 97.0437 144.425 94.1792 143.692C88.5012 142.238 85.0762 136.456 86.5297 130.778C87.9833 125.1 93.7648 121.675 99.4428 123.129C105.121 124.583 108.546 130.364 107.092 136.042C106.552 138.152 105.414 139.951 103.906 141.304" stroke="#263238" stroke-miterlimit="10" stroke-linecap="round" stroke-linejoin="round"/>
<path d="M101.347 125.92C101.17 127.986 97.2602 132.025 97.2602 132.025C97.2602 132.025 95.6944 125.548 96.6446 124.295C97.2792 123.459 99.7065 123.628 100.806 124.637" stroke="#263238" stroke-miterlimit="10" stroke-linecap="round" stroke-linejoin="round"/>
<path d="M96.0079 132.196C96.0079 132.196 89.9672 129.381 89.5809 127.857C89.2365 126.5 92.2773 123.767 93.783 125.194C95.2883 126.621 96.0079 132.196 96.0079 132.196Z" stroke="#263238" stroke-miterlimit="10" stroke-linecap="round" stroke-linejoin="round"/>
<path d="M92.5807 131.804C94.0927 132.513 95.3603 133.281 95.3603 133.281C95.3603 133.281 89.3938 136.249 87.9613 135.601C86.6854 135.024 86.4444 130.942 88.4987 130.655C89.1715 130.561 90.139 130.81 91.1367 131.188" stroke="#263238" stroke-miterlimit="10" stroke-linecap="round" stroke-linejoin="round"/>
<path d="M95.8054 134.464C95.8054 134.464 94.4057 140.979 93.0059 141.695C91.7594 142.333 88.4176 139.977 89.4741 138.191C90.5306 136.406 95.8054 134.464 95.8054 134.464Z" stroke="#263238" stroke-miterlimit="10" stroke-linecap="round" stroke-linejoin="round"/>
<path d="M97.0076 134.854C97.0076 134.854 101.229 140.011 100.916 141.551C100.637 142.924 96.7116 144.067 95.9743 142.128C95.2374 140.189 97.0076 134.854 97.0076 134.854Z" stroke="#263238" stroke-miterlimit="10" stroke-linecap="round" stroke-linejoin="round"/>
<path d="M98.0621 134.157C98.0621 134.157 104.725 134.071 105.735 135.277C106.634 136.35 105.081 140.132 103.105 139.5C101.129 138.868 98.0621 134.157 98.0621 134.157Z" stroke="#263238" stroke-miterlimit="10" stroke-linecap="round" stroke-linejoin="round"/>
<path d="M98.1743 132.898C98.1743 132.898 102.263 127.635 103.834 127.597C105.234 127.564 107.222 131.137 105.496 132.287C103.77 133.437 98.1743 132.898 98.1743 132.898Z" stroke="#263238" stroke-miterlimit="10" stroke-linecap="round" stroke-linejoin="round"/>
<path d="M92.3005 44.2189C92.0008 44.6313 91.7221 45.0941 91.4663 45.617C90.5203 47.5529 90.3969 49.8394 90.9939 51.9007C91.3388 53.0918 92.1072 54.3139 91.9581 55.5965C91.7855 57.0844 90.789 58.2341 90.7621 59.8367C90.7128 62.7599 93.8799 66.2272 97.2879 67.6592C100.246 68.9016 103.729 68.9103 106.19 68.3845" stroke="#263238" stroke-miterlimit="10" stroke-linecap="round" stroke-linejoin="round"/>
<path d="M108.88 67.4961C111.679 66.262 113.573 64.281 113.407 60.7727C113.331 59.1701 112.644 56.7619 113.717 55.3671C114.974 53.7318 117.776 52.0721 117.276 47.4701C116.777 42.8681 109.865 39.2816 105.926 38.832C102.351 38.4242 101.293 39.5772 99.767 40.0769C97.4987 40.8192 95.4601 41.3648 93.812 42.6511" stroke="#263238" stroke-miterlimit="10" stroke-linecap="round" stroke-linejoin="round"/>
<path d="M102.471 59.052C105.823 58.4601 108.06 55.2631 107.468 51.9112C106.876 48.5593 103.679 46.3219 100.327 46.9138C96.9756 47.5057 94.7382 50.7027 95.3301 54.0546C95.922 57.4065 99.119 59.6439 102.471 59.052Z" stroke="#263238" stroke-miterlimit="10" stroke-linecap="round" stroke-linejoin="round"/>
<path d="M105.414 49.4072C106.561 50.6984 107.066 52.5171 106.605 54.3156C106.053 56.4737 104.267 57.9894 102.194 58.3015" stroke="#263238" stroke-miterlimit="10" stroke-linecap="round" stroke-linejoin="round"/>
<path d="M99.3517 57.9571C98.3287 57.5386 97.4895 56.8265 96.9087 55.9476" stroke="#263238" stroke-miterlimit="10" stroke-linecap="round" stroke-linejoin="round"/>
<path d="M154.131 73.1492C154.131 73.1492 150.51 73.8328 148.804 73.0905" stroke="#263238" stroke-miterlimit="10" stroke-linecap="round" stroke-linejoin="round"/>
<path d="M154.843 79.4048C154.843 79.4048 152.865 80.4216 150.809 79.8585" stroke="#263238" stroke-miterlimit="10" stroke-linecap="round" stroke-linejoin="round"/>
<path d="M149.206 88.4809C149.206 88.4809 149.685 89.4124 151.9 88.5687" stroke="#263238" stroke-miterlimit="10" stroke-linecap="round" stroke-linejoin="round"/>
<path d="M151.729 83.6533C151.729 83.6533 150.15 83.729 148.916 83.3328" stroke="#263238" stroke-miterlimit="10" stroke-linecap="round" stroke-linejoin="round"/>
<path d="M153.28 88.8436C154.166 87.407 155.115 86.1931 155.611 84.5458C156.144 82.7702 156.327 80.8919 157.124 79.1986C158.235 76.838 158.359 75.6871 158.151 73.1418C158.049 71.887 158.55 70.58 157.954 69.4199C157.236 68.0231 155.628 65.465 152.525 65.4401C149.423 65.4153 146.931 67.7254 146.774 69.4249C146.617 71.1239 147.63 72.8106 147.524 73.7483C147.417 74.6856 146.665 75.5132 146.678 76.6831C146.71 79.7749 147.239 82.3508 146.647 85.4926C146.371 86.9607 146.093 88.4329 145.641 89.8566C145.085 91.6049 144.855 93.7809 146.527 95.0068C147.865 95.9888 150.088 93.9676 150.853 93.0949C151.902 91.8985 152.311 90.4606 153.096 89.1474C153.157 89.0452 153.219 88.9442 153.28 88.8436Z" stroke="#263238" stroke-miterlimit="10" stroke-linecap="round" stroke-linejoin="round"/>
<path d="M152.525 65.4402C152.525 65.4402 152.679 63.4484 153.375 62.7968C154.07 62.1451 156.587 62.1762 158.327 60.6941C160.067 59.2115 159.711 58.8058 158.427 59.171C157.144 59.5361 159.884 58.5698 160.504 56.3384C161.123 54.1073 158.971 55.3601 157.351 57.0753C155.73 58.7905 154.79 58.391 154.959 57.8623C155.129 57.3336 156.623 54.8004 156.136 52.9912C155.647 51.182 153.511 52.4774 153.033 54.9784C152.555 57.4789 152.83 61.164 152.056 59.9431C151.281 58.7222 152.608 57.1357 151.73 51.6386C150.851 46.1415 147.702 46.5829 147.658 48.5183C147.614 50.4534 149.572 52.2435 148.281 52.0237C146.991 51.8034 143.586 50.9042 143.851 53.7111C144.116 56.518 146.897 53.9119 147.97 55.7149C149.044 57.5179 151.035 57.6714 150.885 59.9559C150.734 62.2404 149.249 60.208 147.785 60.2238C146.322 60.2399 145.4 61.5962 147.348 63.0969C149.297 64.5977 150.325 62.3033 151.156 63.3482C151.987 64.3927 151.967 65.3122 151.967 65.3122L152.525 65.4402Z" stroke="#263238" stroke-miterlimit="10" stroke-linecap="round" stroke-linejoin="round"/>
<path d="M114.17 141.139L115.193 152.708C115.299 153.907 116.399 154.767 117.588 154.581L135.906 151.713C137.071 151.531 137.852 150.418 137.627 149.261L134.227 131.745C134.017 130.665 133.005 129.936 131.914 130.078L130.746 130.231M129.5 130.393L125.745 130.883C125.383 130.93 125.04 130.706 124.939 130.356L124.71 129.569C124.637 129.317 124.703 129.045 124.884 128.855L125.026 128.705C125.529 128.173 125.753 127.436 125.63 126.715C125.42 125.471 124.257 124.62 123.008 124.796L121.496 125.009C120.12 125.203 119.218 126.552 119.565 127.898L119.615 128.094C119.798 128.803 120.304 129.385 120.98 129.666L121.802 130.006C122.037 130.103 122.206 130.314 122.248 130.566C122.318 130.979 122.031 131.368 121.615 131.423L115.383 132.237C114.277 132.381 113.482 133.372 113.58 134.483L114.079 140.128M122.5 128.439C122.01 128.313 121.715 127.815 121.84 127.325C121.965 126.835 122.464 126.54 122.954 126.665C123.444 126.79 123.739 127.289 123.614 127.779C123.488 128.268 122.99 128.564 122.5 128.439Z" stroke="#263238" stroke-miterlimit="10" stroke-linecap="round" stroke-linejoin="round"/>
<path d="M131.621 149.18L134.098 148.757C134.755 148.645 135.185 148.007 135.042 147.357L131.899 132.978C131.767 132.373 131.186 131.977 130.575 132.074L116.836 134.258C116.216 134.357 115.785 134.928 115.86 135.551L117.642 150.323C117.722 150.986 118.339 151.447 118.997 151.334L130.381 149.391" stroke="#263238" stroke-miterlimit="10" stroke-linecap="round" stroke-linejoin="round"/>
<path d="M67.7209 133.979C65.1007 134.456 62.5488 135.172 61.773 137.046C60.2213 140.794 64.945 142.003 69.1554 141.748C73.3658 141.494 76.8724 136.47 78.0038 133.207C78.5168 131.727 79.6478 129.616 81.024 127.52" stroke="#263238" stroke-miterlimit="10" stroke-linecap="round" stroke-linejoin="round"/>
<path d="M82.2175 125.795C83.5957 123.903 85.0961 122.181 86.4196 121.149C89.5639 118.697 94.9145 119.771 97.2217 117.697C99.5289 115.623 95.5421 113.27 89.128 115.773C89.128 115.773 85.2244 117.143 82.487 121.475C79.7497 125.808 76.1752 130.518 74.0779 132.35C73.2577 133.066 71.4341 133.367 69.4245 133.692" stroke="#263238" stroke-miterlimit="10" stroke-linecap="round" stroke-linejoin="round"/>
<path d="M72.2447 136.926C71.6771 137.2 70.9985 137.469 70.1871 137.719C65.2046 139.256 62.5968 139.033 62.8816 137.922C63.1661 136.81 65.4671 135.919 65.4671 135.919" stroke="#263238" stroke-miterlimit="10" stroke-linecap="round" stroke-linejoin="round"/>
<path d="M75.1472 133.956C75.1472 133.956 75.1559 134.833 73.9293 135.867" stroke="#263238" stroke-miterlimit="10" stroke-linecap="round" stroke-linejoin="round"/>
<path d="M135.541 51.8432C134.82 49.7413 133.628 47.8191 131.993 46.315C131.136 45.5272 130.128 44.8134 129.032 44.445C125.743 43.3384 122 45.5553 121.114 48.5034C120.227 51.4515 121.092 57.8905 121.092 57.8905C121.092 57.8905 118.207 56.7553 117.479 59.0824C116.751 61.4095 119.636 62.5447 120.441 63.0158C121.247 63.4865 122.326 64.9537 122.326 64.9537C122.326 64.9537 123.607 71.5521 124.36 72.3333C125.113 73.1145 137.964 66.9761 139.051 65.7975C139.884 64.8949 136.959 55.9753 135.541 51.8432Z" stroke="#263238" stroke-miterlimit="10" stroke-linecap="round" stroke-linejoin="round"/>
<path d="M131.361 67.8976L138.877 64.2122" stroke="#263238" stroke-miterlimit="10" stroke-linecap="round" stroke-linejoin="round"/>
<path d="M124.37 71.326L129.219 68.9484" stroke="#263238" stroke-miterlimit="10" stroke-linecap="round" stroke-linejoin="round"/>
<path d="M126.644 45.0825C126.644 45.0825 125.948 57.5895 123.645 65.3222" stroke="#263238" stroke-miterlimit="10" stroke-linecap="round" stroke-linejoin="round"/>
<path d="M128.027 45.6791C128.027 45.6791 127.753 57.1635 124.817 66.1076" stroke="#263238" stroke-miterlimit="10" stroke-linecap="round" stroke-linejoin="round"/>
<path d="M129.21 60.2026C128.608 62.6485 127.872 64.998 126.997 66.7459" stroke="#263238" stroke-miterlimit="10" stroke-linecap="round" stroke-linejoin="round"/>
<path d="M131.337 47.8998C131.337 47.8998 130.747 53.4739 129.498 58.9826" stroke="#263238" stroke-miterlimit="10" stroke-linecap="round" stroke-linejoin="round"/>
<path d="M133.243 49.923C133.243 49.923 132.068 59.5605 128.436 67.4377" stroke="#263238" stroke-miterlimit="10" stroke-linecap="round" stroke-linejoin="round"/>
<path d="M135.189 54.9461C135.189 54.9461 133.865 60.7479 131.713 65.3681" stroke="#263238" stroke-miterlimit="10" stroke-linecap="round" stroke-linejoin="round"/>
<path d="M123.174 60.2743C123.025 60.9007 122.866 61.5093 122.695 62.0897" stroke="#263238" stroke-miterlimit="10" stroke-linecap="round" stroke-linejoin="round"/>
<path d="M125.081 46.137C125.081 46.137 124.709 52.9183 123.493 58.8294" stroke="#263238" stroke-miterlimit="10" stroke-linecap="round" stroke-linejoin="round"/>
<path d="M128.946 49.377C130.636 50.1458 132.589 51.3314 134.516 53.1576" stroke="#263238" stroke-miterlimit="10" stroke-linecap="round" stroke-linejoin="round"/>
<path d="M124.046 47.9727C124.046 47.9727 125.904 48.0824 128.484 49.1741" stroke="#263238" stroke-miterlimit="10" stroke-linecap="round" stroke-linejoin="round"/>
<path d="M123.751 49.7558C123.751 49.7558 131.923 51.6056 136.201 57.3059" stroke="#263238" stroke-miterlimit="10" stroke-linecap="round" stroke-linejoin="round"/>
<path d="M122.864 52.2758C122.864 52.2758 128.123 52.2485 136.734 60.2706" stroke="#263238" stroke-miterlimit="10" stroke-linecap="round" stroke-linejoin="round"/>
<path d="M135.631 62.0495C135.772 62.2081 135.896 62.3612 136.001 62.5066" stroke="#263238" stroke-miterlimit="10" stroke-linecap="round" stroke-linejoin="round"/>
<path d="M128.894 56.8091C128.894 56.8091 132.757 59.2976 134.925 61.3324" stroke="#263238" stroke-miterlimit="10" stroke-linecap="round" stroke-linejoin="round"/>
<path d="M124.818 59.1589C124.818 59.1589 131.221 61.6061 133.291 64.8829" stroke="#263238" stroke-miterlimit="10" stroke-linecap="round" stroke-linejoin="round"/>
<path d="M112.604 115.827C112.604 115.827 110.016 114.295 108.338 116.97C106.66 119.644 108.042 122.977 109.581 124.24C111.12 125.503 112.204 124.663 112.204 124.663C112.204 124.663 113.594 126.509 114.908 126.224C116.223 125.94 119.271 123.245 119.492 120.445C119.711 117.646 115.227 116.25 115.227 116.25" stroke="#263238" stroke-miterlimit="10" stroke-linecap="round" stroke-linejoin="round"/>
<path d="M113.297 116.998C113.297 116.998 113.33 116.385 113.512 115.19C113.694 113.995 113.872 113.296 114.572 113.475C115.271 113.654 114.94 115.432 114.143 117.09" stroke="#263238" stroke-miterlimit="10" stroke-linecap="round" stroke-linejoin="round"/>
<path d="M110.945 116.297C111.065 116.327 111.681 117.082 111.681 117.082C111.681 117.082 112.725 116.837 113.56 117.904C113.56 117.904 114.676 117.039 115.924 117.827" stroke="#263238" stroke-miterlimit="10" stroke-linecap="round" stroke-linejoin="round"/>
<path d="M113.264 118.894C113.264 118.894 112.752 122.557 112.435 123.797" stroke="#263238" stroke-miterlimit="10" stroke-linecap="round" stroke-linejoin="round"/>
<path d="M110.749 117.227C110.749 117.227 108.971 118.178 109.01 121.855" stroke="#263238" stroke-miterlimit="10" stroke-linecap="round" stroke-linejoin="round"/>
<path d="M116.572 118.462C116.572 118.462 118.133 118.691 116.962 122.1C115.791 125.509 115.049 125.575 115.049 125.575" stroke="#263238" stroke-miterlimit="10" stroke-linecap="round" stroke-linejoin="round"/>
<path d="M87.8885 66.926C87.8885 66.926 85.7916 65.6849 84.432 67.8522C83.0724 70.0194 84.1919 72.7204 85.4388 73.7442C86.6858 74.7676 87.5643 74.087 87.5643 74.087C87.5643 74.087 88.6908 75.5828 89.7556 75.3522C90.8208 75.122 93.2916 72.9373 93.4696 70.669C93.648 68.4007 90.0135 67.2692 90.0135 67.2692" stroke="#263238" stroke-miterlimit="10" stroke-linecap="round" stroke-linejoin="round"/>
<path d="M88.4507 67.8749C88.4507 67.8749 88.4772 67.3785 88.6246 66.4102C88.7719 65.4418 88.9168 64.8751 89.4832 65.0204C90.0496 65.1653 89.7817 66.606 89.1359 67.9499" stroke="#263238" stroke-miterlimit="10" stroke-linecap="round" stroke-linejoin="round"/>
<path d="M86.5438 67.3069C86.6411 67.3317 87.1408 67.9432 87.1408 67.9432C87.1408 67.9432 87.9862 67.7449 88.6631 68.6093C88.6631 68.6093 89.5681 67.9084 90.5791 68.5472" stroke="#263238" stroke-miterlimit="10" stroke-linecap="round" stroke-linejoin="round"/>
<path d="M88.4234 69.4117C88.4234 69.4117 88.009 72.3801 87.7515 73.3853" stroke="#263238" stroke-miterlimit="10" stroke-linecap="round" stroke-linejoin="round"/>
<path d="M86.3852 68.0608C86.3852 68.0608 84.9441 68.8321 84.976 71.8112" stroke="#263238" stroke-miterlimit="10" stroke-linecap="round" stroke-linejoin="round"/>
<path d="M91.104 69.0615C91.104 69.0615 92.3692 69.2473 91.4203 72.0096C90.4714 74.7722 89.8703 74.8256 89.8703 74.8256" stroke="#263238" stroke-miterlimit="10" stroke-linecap="round" stroke-linejoin="round"/>
<path d="M83.6649 61.5076C82.0329 61.982 80.4903 61.6107 80.2196 60.6783C79.9484 59.746 81.0517 58.6054 82.6833 58.131C84.3149 57.6566 85.8578 58.0279 86.1286 58.9602C86.3998 59.893 85.2969 61.0331 83.6649 61.5076Z" stroke="#263238" stroke-miterlimit="10" stroke-linecap="round" stroke-linejoin="round"/>
<path d="M85.8528 51.1278C85.6322 51.9902 85.0083 52.5751 84.4593 52.4348C83.9104 52.2944 83.6446 51.4813 83.8656 50.619C84.0863 49.7566 84.7102 49.1716 85.2587 49.312C85.8077 49.4523 86.0735 50.2654 85.8528 51.1278Z" stroke="#263238" stroke-miterlimit="10" stroke-linecap="round" stroke-linejoin="round"/>
<path d="M139.069 86.0764C138.848 86.9388 138.224 87.5237 137.676 87.3834C137.127 87.2431 136.861 86.43 137.082 85.5676C137.302 84.7052 137.926 84.1203 138.475 84.2606C139.024 84.4009 139.289 85.214 139.069 86.0764Z" stroke="#263238" stroke-miterlimit="10" stroke-linecap="round" stroke-linejoin="round"/>
<path d="M82.6096 141.197C82.3889 142.059 81.765 142.644 81.2165 142.504C80.6675 142.363 80.4017 141.55 80.6224 140.688C80.843 139.826 81.4669 139.241 82.0155 139.381C82.564 139.521 82.8302 140.334 82.6096 141.197Z" stroke="#263238" stroke-miterlimit="10" stroke-linecap="round" stroke-linejoin="round"/>
<path d="M128.929 119.78C128.708 120.642 128.084 121.227 127.535 121.087C126.986 120.946 126.72 120.133 126.941 119.271C127.162 118.409 127.786 117.824 128.335 117.964C128.884 118.104 129.149 118.917 128.929 119.78Z" stroke="#263238" stroke-miterlimit="10" stroke-linecap="round" stroke-linejoin="round"/>
<path d="M88.9164 40.3414C88.8059 40.7728 89.3839 41.2928 90.2069 41.5035C91.0299 41.7142 91.7867 41.5354 91.8972 41.1044C92.0078 40.6734 91.4298 40.153 90.6068 39.9423C89.7838 39.7316 89.027 39.9104 88.9164 40.3414Z" stroke="#263238" stroke-miterlimit="10" stroke-linecap="round" stroke-linejoin="round"/>
<path d="M144.491 98.2782C144.38 98.7096 144.958 99.2296 145.781 99.4403C146.604 99.6511 147.361 99.4722 147.471 99.0412C147.582 98.6103 147.004 98.0899 146.181 97.8791C145.358 97.6684 144.601 97.8473 144.491 98.2782Z" stroke="#263238" stroke-miterlimit="10" stroke-linecap="round" stroke-linejoin="round"/>
<path d="M72.5336 103.452C72.4231 103.883 73.001 104.404 73.8241 104.615C74.6471 104.825 75.4039 104.646 75.5144 104.215C75.625 103.784 75.047 103.264 74.224 103.053C73.401 102.843 72.6442 103.021 72.5336 103.452Z" stroke="#263238" stroke-miterlimit="10" stroke-linecap="round" stroke-linejoin="round"/>
<path d="M140.859 115.675L141.499 107.862L140.418 107.774L143.279 91.9892L138.942 91.6344L138.965 91.5876L128.688 90.7468C128.845 90.5708 128.99 90.3828 129.125 90.1833C129.643 89.4108 129.946 88.529 130.025 87.5614C130.131 86.2606 129.917 85.0952 129.387 84.0971C129.182 83.7092 128.947 83.3353 128.69 82.9809L130.198 82.9188L130.298 81.0393C130.325 80.5429 130.309 80.0179 130.252 79.4773C130.181 78.8169 130 78.1736 129.711 77.5629C129.36 76.8223 128.818 76.2025 128.099 75.721C127.908 75.5939 127.702 75.4788 127.486 75.3795C126.907 75.1137 126.224 74.9473 125.458 74.8848C124.462 74.8032 123.556 74.9063 122.747 75.1853L122.775 74.8442L116.461 74.3275L111.907 73.9549L109.779 73.781L108.329 73.6622L101.902 73.1364L100.991 84.2635L100.983 84.2627L101.893 73.1356L94.8764 72.561L93.468 89.7685L95.1211 89.9038C94.7274 90.2566 94.38 90.659 94.0803 91.1094C93.6356 90.0479 92.919 89.1628 91.9362 88.4747C91.6377 88.2656 91.3069 88.0781 90.9538 87.9162C90.0156 87.4861 88.9086 87.2236 87.5701 87.1139C85.7009 86.9607 84.1182 87.2066 82.8667 87.8442C81.5365 88.5219 80.5412 89.5644 79.9082 90.943C79.3738 92.1076 79.0364 93.5061 78.9059 95.0987L78.3263 102.182C78.1988 103.743 78.3052 105.161 78.6435 106.397C79.0417 107.855 79.8507 109.047 81.0467 109.939C81.4057 110.207 81.8073 110.444 82.2403 110.642C83.1735 111.07 84.2966 111.34 85.5792 111.445C87.4613 111.6 88.9703 111.368 90.1912 110.739C91.2299 110.203 92.0496 109.448 92.6441 108.495C93.1095 109.553 93.8174 110.434 94.7638 111.116C95.0983 111.358 95.4705 111.573 95.8692 111.756C96.8056 112.185 97.9379 112.457 99.235 112.563C101.12 112.717 102.649 112.49 103.911 111.869C105.103 111.282 106.034 110.396 106.687 109.234C107.139 110.483 107.907 111.508 108.977 112.279C109.312 112.521 109.685 112.736 110.083 112.919C111.019 113.348 112.151 113.62 113.449 113.726C115.333 113.881 116.863 113.654 118.125 113.033C118.943 112.63 119.639 112.086 120.206 111.409L119.997 113.969L137.033 115.363L140.859 115.675ZM87.0932 99.8208L87.1884 98.6591L92.3274 99.0797L92.2322 100.241L87.0932 99.8208ZM107.022 90.8776L109.335 91.0668C108.825 91.5238 108.392 92.0633 108.041 92.6834C107.794 92.0144 107.453 91.4116 107.022 90.8776ZM119.93 90.8175C119.609 90.5915 119.254 90.3886 118.876 90.2148C118.087 89.8533 117.151 89.6083 116.099 89.4708L116.618 83.1308L118.042 83.2273C118.762 83.2761 119.351 83.1751 119.831 82.9987C119.841 83.0178 119.849 83.0372 119.859 83.0559C120.013 83.349 120.185 83.633 120.374 83.9054L118.868 84.0072L118.779 85.8479C118.718 87.111 118.848 88.1621 119.177 89.0609C119.565 90.1266 120.226 90.9629 121.14 91.547C121.343 91.677 121.561 91.795 121.786 91.8985C121.792 91.901 121.798 91.9026 121.803 91.9051L121.734 92.746C121.28 91.9904 120.678 91.3446 119.93 90.8175ZM134.813 99.7508L134.786 106.857L133.56 102.214L134.813 99.7508Z" fill="white"/>
<path d="M95.7003 87.874L96.7709 74.7924L99.6614 75.0288L98.751 86.1559L101.755 86.4018L101.595 88.3559L95.7003 87.874Z" fill="#263238"/>
<path d="M102.725 88.4491L103.796 75.3675L109.674 75.8486L109.513 77.8188L106.526 77.5745L106.26 80.8207L108.537 81.007L108.373 83.0095L106.096 82.8232L105.776 86.7314L108.796 86.9785L108.637 88.9326L102.725 88.4491Z" fill="#263238"/>
<path d="M111.123 89.1362L112.018 78.2029L110.047 78.0419L110.223 75.894L117.055 76.4529L116.879 78.6008L114.925 78.441L114.03 89.3743L111.123 89.1362Z" fill="#263238"/>
<path d="M118.181 81.1618L118.055 80.3222C118.475 80.3458 118.756 80.2278 118.897 79.9682C119.037 79.7091 119.124 79.3692 119.159 78.949L118.045 78.8579L118.234 76.5486L120.543 76.7374C120.517 77.0603 120.489 77.3724 120.458 77.6734C120.428 77.9744 120.397 78.2592 120.364 78.5275C120.256 79.4511 120.051 80.1334 119.749 80.5747C119.447 81.0161 118.925 81.2123 118.181 81.1618Z" fill="#263238"/>
<path d="M124.269 90.4068C123.451 90.3398 122.779 90.1385 122.254 89.8028C121.728 89.467 121.351 88.9839 121.121 88.3526C120.89 87.7216 120.799 86.9197 120.846 85.948L123.347 85.7787C123.312 86.3393 123.326 86.7959 123.389 87.1478C123.452 87.5001 123.562 87.7581 123.716 87.9224C123.871 88.0872 124.067 88.1787 124.304 88.1981C124.605 88.2226 124.81 88.1369 124.918 87.9394C125.026 87.7423 125.09 87.5308 125.108 87.3047C125.152 86.7665 125.06 86.3008 124.832 85.9083C124.604 85.5154 124.285 85.113 123.874 84.6998L122.824 83.6222C122.364 83.1618 121.985 82.6509 121.69 82.0904C121.394 81.5298 121.278 80.8563 121.343 80.0705C121.433 78.9618 121.831 78.1408 122.536 77.6076C123.24 77.0748 124.158 76.8541 125.288 76.9469C125.988 77.004 126.541 77.1688 126.947 77.4403C127.353 77.7119 127.65 78.0481 127.84 78.4484C128.029 78.8488 128.147 79.2648 128.193 79.6966C128.239 80.1289 128.251 80.5387 128.23 80.927L125.718 81.0301C125.739 80.6418 125.742 80.3036 125.728 80.015C125.714 79.7269 125.654 79.4996 125.548 79.334C125.442 79.168 125.266 79.0752 125.018 79.0549C124.749 79.033 124.543 79.1299 124.401 79.3456C124.258 79.5617 124.178 79.7828 124.159 80.0088C124.12 80.4932 124.203 80.8985 124.41 81.2243C124.616 81.5501 124.893 81.8954 125.243 82.2597L126.247 83.3013C126.778 83.8325 127.215 84.4208 127.558 85.067C127.901 85.7129 128.035 86.4879 127.961 87.3925C127.911 88.006 127.725 88.5517 127.405 89.0294C127.084 89.5072 126.655 89.8707 126.121 90.1195C125.587 90.3683 124.969 90.4644 124.269 90.4068Z" fill="#263238"/>
<path d="M85.7477 109.382C84.2598 109.26 83.1056 108.893 82.285 108.28C81.4641 107.668 80.9159 106.858 80.6402 105.85C80.3645 104.843 80.2809 103.676 80.3893 102.35L80.9689 95.2672C81.0799 93.9089 81.3531 92.7555 81.7895 91.8062C82.225 90.8573 82.8973 90.151 83.8065 89.6881C84.7152 89.2253 85.9133 89.0547 87.4012 89.1764C88.8564 89.2957 89.973 89.6273 90.7509 90.1709C91.528 90.7149 92.0521 91.429 92.3216 92.3137C92.5911 93.1989 92.6802 94.1991 92.5891 95.3144L92.45 97.0126L88.2052 96.6653L88.3659 94.7004C88.3977 94.3125 88.4077 93.9387 88.3965 93.5797C88.3849 93.2208 88.2922 92.9161 88.117 92.6656C87.9423 92.4156 87.6202 92.2707 87.1512 92.2326C86.6983 92.1953 86.353 92.2893 86.1149 92.5141C85.8769 92.7389 85.7142 93.0308 85.6281 93.3901C85.5415 93.7495 85.4819 94.1312 85.4492 94.5353L84.6929 103.777C84.6572 104.214 84.6606 104.617 84.7036 104.987C84.7467 105.356 84.8684 105.659 85.0688 105.896C85.2691 106.132 85.5792 106.267 85.9998 106.302C86.4523 106.338 86.7856 106.248 86.9988 106.029C87.212 105.811 87.3582 105.517 87.4373 105.149C87.5159 104.781 87.5718 104.403 87.6033 104.015L87.7722 101.953L92.0169 102.301L91.8778 103.998C91.7863 105.115 91.5388 106.099 91.1355 106.954C90.7319 107.808 90.1009 108.456 89.2427 108.899C88.3841 109.341 87.2191 109.502 85.7477 109.382Z" fill="#263238"/>
<path d="M99.404 110.499C97.9322 110.379 96.7891 110.025 95.9748 109.437C95.1596 108.85 94.6065 108.055 94.3138 107.055C94.0211 106.054 93.93 104.883 94.0398 103.541L94.6372 96.2401C94.7485 94.8818 95.0288 93.7408 95.4788 92.8171C95.9288 91.8935 96.6028 91.2121 97.502 90.7728C98.4004 90.3335 99.5857 90.1742 101.057 90.2946C102.545 90.4163 103.701 90.7674 104.524 91.3474C105.347 91.9274 105.906 92.7099 106.2 93.6944C106.494 94.6793 106.585 95.8501 106.474 97.2088L105.877 104.51C105.767 105.852 105.486 106.993 105.035 107.933C104.583 108.872 103.904 109.566 102.997 110.012C102.089 110.459 100.891 110.621 99.404 110.499ZM99.6561 107.419C100.109 107.456 100.449 107.37 100.678 107.161C100.907 106.952 101.068 106.672 101.162 106.321C101.256 105.971 101.318 105.61 101.349 105.238L102.123 95.7777C102.155 95.3897 102.152 95.0192 102.116 94.6661C102.08 94.3133 101.965 94.0153 101.774 93.7714C101.582 93.528 101.26 93.3872 100.807 93.3504C100.387 93.316 100.062 93.4034 99.8337 93.6124C99.6047 93.8219 99.4437 94.0976 99.351 94.4396C99.2578 94.782 99.1953 95.1475 99.1638 95.5355L98.3897 104.995C98.359 105.368 98.3574 105.734 98.3851 106.094C98.4124 106.454 98.518 106.756 98.7018 106.999C98.8848 107.242 99.2032 107.382 99.6561 107.419Z" fill="#263238"/>
<path d="M113.618 111.662C112.146 111.542 111.003 111.188 110.189 110.6C109.374 110.013 108.82 109.218 108.528 108.218C108.235 107.217 108.144 106.046 108.254 104.704L108.851 97.4026C108.962 96.0439 109.243 94.9033 109.693 93.9797C110.143 93.0561 110.817 92.3746 111.716 91.9354C112.615 91.4961 113.8 91.3367 115.272 91.4568C116.759 91.5785 117.915 91.9296 118.739 92.51C119.562 93.09 120.12 93.8725 120.414 94.857C120.708 95.8419 120.799 97.0131 120.688 98.3714L120.091 105.672C119.981 107.015 119.7 108.155 119.249 109.095C118.798 110.035 118.118 110.728 117.211 111.175C116.303 111.621 115.106 111.784 113.618 111.662ZM113.87 108.582C114.322 108.619 114.664 108.533 114.892 108.324C115.121 108.114 115.282 107.835 115.376 107.484C115.47 107.134 115.532 106.773 115.562 106.401L116.337 96.9406C116.368 96.5527 116.366 96.1822 116.33 95.829C116.293 95.4763 116.179 95.1782 115.988 94.9344C115.796 94.6909 115.474 94.5506 115.021 94.5133C114.601 94.479 114.276 94.5663 114.047 94.7754C113.819 94.9849 113.658 95.2602 113.565 95.6026C113.472 95.9449 113.409 96.3105 113.378 96.6984L112.603 106.158C112.573 106.531 112.571 106.897 112.599 107.257C112.626 107.617 112.732 107.919 112.916 108.162C113.099 108.405 113.417 108.545 113.87 108.582Z" fill="#263238"/>
<path d="M122.229 112.074L123.836 92.4263L128.178 92.7815L127.521 100.81L131.477 93.0515L135.722 93.3988L131.357 101.979L134.284 113.06L129.869 112.699L127.742 103.783L127.217 104.521L126.57 112.429L122.229 112.074Z" fill="#263238"/>
<path d="M135.229 113.138L135.531 109.451L139.267 109.757L138.965 113.443L135.229 113.138ZM136.851 108.24L136.906 93.5446L140.835 93.8662L138.209 108.351L136.851 108.24Z" fill="#263238"/>
</svg>
