<svg width="126" height="125" viewBox="0 0 126 125" fill="none" xmlns="http://www.w3.org/2000/svg">
<path d="M118.952 97.468C126.239 81.0875 126.729 59.2624 121.699 41.7647C117.368 26.6995 107.731 15.2092 96.5998 8.36681C83.6848 0.427949 68.2904 -1.93477 54.4311 3.07572C50.7846 4.39411 47.2356 5.60114 43.7984 7.76605C29.7072 16.641 32.4263 38.511 27.4823 46.1187C23.3228 52.5193 15.3693 50.6319 10.3549 55.5365C-3.17558 68.7714 -3.21121 102.225 12.4019 112.683C28.9653 123.776 100.904 138.04 118.952 97.468Z" fill="#FC6011" fill-opacity="0.7"/>
<path opacity="0.8" d="M118.952 97.468C126.239 81.0875 126.729 59.2624 121.699 41.7647C117.368 26.6995 107.731 15.2092 96.5998 8.36681C83.6848 0.427949 68.2904 -1.93477 54.4311 3.07572C50.7846 4.39411 47.2356 5.60114 43.7984 7.76605C29.7072 16.641 32.4263 38.511 27.4823 46.1187C23.3228 52.5193 15.3693 50.6319 10.3549 55.5365C-3.17558 68.7714 -3.21121 102.225 12.4019 112.683C28.9653 123.776 100.904 138.04 118.952 97.468Z" fill="white"/>
</svg>
