<svg width="1052" height="1341" viewBox="0 0 1052 1341" fill="none" xmlns="http://www.w3.org/2000/svg">
<g clip-path="url(#clip0_1_3)">
<path d="M4984.85 -46.6599H-2212.17V2233.24H4984.85V-46.6599Z" fill="#F7F3EF"/>
<path d="M412 1216.74C412.16 1200.02 436.2 1165.31 442.68 1152.64L388.89 1150.72C388.89 1150.72 380.44 1183.62 368.14 1207.72C363.87 1216.09 348.14 1237.65 316.05 1244.15C286.26 1250.15 290.69 1263.45 290.69 1263.45H406.22C431.06 1263.45 413.97 1225.15 413.97 1225.15L412 1216.74Z" fill="#FCBE9F" stroke="#070707" stroke-width="4" stroke-linecap="round" stroke-linejoin="round"/>
<path d="M387.29 1158C396.94 1162.41 415.12 1170 431.29 1172.23C436.04 1164.17 440.43 1157.09 442.68 1152.69L388.89 1150.76C388.89 1150.76 388.41 1153.39 387.29 1158Z" fill="#1C0E0C"/>
<path d="M414 1225.12C414 1225.12 431.09 1263.42 406.25 1263.42H290.67C290.67 1263.42 286.02 1248.93 316.03 1244.12C320.2 1243.45 332.14 1240.47 332.14 1240.47C332.14 1240.47 328.43 1251.87 354.84 1250.7C381.25 1249.53 393.16 1227 414 1225.12Z" fill="#E57B07" stroke="#070707" stroke-width="4" stroke-linecap="round" stroke-linejoin="round"/>
<path d="M678.19 1212.89C674.49 1199.8 684.81 1163.31 687.66 1152.64H639.66C639.66 1152.64 645.97 1188.35 645.28 1207.64C644.97 1216.18 635.46 1237.8 604.51 1244.07C581.61 1249.79 582.61 1263.37 582.61 1263.37H680.48C705.33 1263.37 684.08 1225.07 684.08 1225.07L678.19 1212.89Z" fill="#FCBE9F" stroke="#070707" stroke-width="4" stroke-linecap="round" stroke-linejoin="round"/>
<path d="M687.65 1152.65H639.65C639.65 1152.65 640.84 1159.51 642.13 1168.84C659.6 1170.49 677.56 1164.69 685.21 1161.84C686.21 1158 687.08 1154.79 687.65 1152.65Z" fill="#1C0E0C"/>
<path d="M684.07 1225.12C684.07 1225.12 705.32 1263.42 680.47 1263.42H582.6C582.6 1263.42 581.6 1249.84 604.5 1244.12C608.6 1243.12 617.14 1240.12 617.14 1240.12C617.14 1240.12 625.61 1232.8 650.24 1248.28C671 1261.34 673.63 1225.12 684.07 1225.12Z" fill="#E57B07" stroke="#070707" stroke-width="4" stroke-linecap="round" stroke-linejoin="round"/>
<path d="M715.86 698.77C709.09 799 693.12 874.51 694.69 891.09C694.69 891.09 726.19 1015.31 712.1 1152.65C712.1 1152.65 656.42 1158.41 632.74 1152.65C632.74 1152.65 630.46 1137.25 625.99 1114.15C617.41 1069.81 609.5 997.07 600.17 950.39C597.08 934.92 584.69 874.76 572.69 809.88C555.15 854.29 538.72 883 524.4 922C524.4 922 526.86 1072.63 470.08 1156.5L380.42 1150.87C380.42 1150.87 405.84 1031.33 417.67 927L493.51 480.11H629C629 480.11 723.82 559.54 715.86 698.77Z" fill="#E57B07" stroke="#070707" stroke-width="4" stroke-linecap="round" stroke-linejoin="round"/>
<path d="M571.99 814.73L554.13 682.03" stroke="#070707" stroke-width="4" stroke-linecap="round" stroke-linejoin="round"/>
<path d="M611.14 230.43C629.94 235.05 677.35 247.21 691.24 267.85C709.3 294.68 739 423.94 739 423.94L687.2 408.66C687.2 408.66 653.94 348.44 651.69 348.44C649.44 348.44 629 480.11 629 480.11H493.51L482.28 413.6C482.28 413.6 453.52 390.23 455.28 375.85C457.04 361.47 457.62 357.25 457.62 357.25C457.62 357.25 442.27 362.91 400 404.7L350.61 383C350.61 383 427 275 449 262.08C471 249.16 497.08 246.43 497.08 246.43L611.14 230.43Z" fill="#F7F3EF" stroke="#070707" stroke-width="4" stroke-linecap="round" stroke-linejoin="round"/>
<path d="M545.93 141.08C545.93 141.08 562.85 209.28 619 233C619 233 578 261.38 491.79 250.85C491.79 250.85 522.37 216.05 516.59 177.41L545.93 141.08Z" fill="#FCBE9F" stroke="#070707" stroke-width="4" stroke-linecap="round" stroke-linejoin="round"/>
<path d="M508.47 238.36C506.13 238.44 503.803 237.967 501.68 236.98C510.03 223.31 520.13 201.09 516.59 177.43L544.94 142.31C546.09 143.89 546.68 144.86 546.68 144.86C550.67 157.16 553 236.42 508.47 238.36Z" fill="#1C0E0C"/>
<path d="M545.93 141.08C549.93 153.38 544.43 212.08 511.87 216.08C487.4 219.08 460.32 169.93 456.81 158.9C453.3 147.87 457.59 121.46 483.81 113.52C518.86 102.86 545.93 141.08 545.93 141.08Z" fill="#FCBE9F" stroke="#070707" stroke-width="4" stroke-linecap="round" stroke-linejoin="round"/>
<path d="M470.24 128.1C470.24 128.1 494.41 148.6 545.93 141.1C545.93 141.1 560.93 210.42 619 233.04C619 233.04 656.46 190.6 631.27 161.4C615.27 142.88 579.4 159.15 579.4 159.15C579.4 159.15 611.4 78.6699 532.02 78.2899C452.64 77.9099 435.64 162.16 459.47 165.29C459.47 165.26 447.79 141.08 470.24 128.1Z" fill="#1C0E0C"/>
<path d="M635 154.21C607.56 133.31 577.85 159.51 577.85 159.51" stroke="#070707" stroke-width="4" stroke-linecap="round" stroke-linejoin="round"/>
<path d="M469.48 127.34C469.48 127.34 482.99 157.68 534.48 150.16" stroke="#070707" stroke-width="4" stroke-linecap="round" stroke-linejoin="round"/>
<path d="M449.66 148.11C449.66 148.11 441.78 118.52 450.05 104.61C458.32 90.7 495.93 62.87 522.62 61C549.31 59.13 607.62 91.46 607.62 91.46C607.62 91.46 558.83 93.92 549.94 154.17C549.94 154.17 527.68 103.93 487.94 112.47C448.2 121.01 449.66 148.11 449.66 148.11Z" fill="#EFAF00" stroke="black" stroke-width="4" stroke-linecap="round" stroke-linejoin="round"/>
<path d="M596 221.72C596 221.72 578.93 269.14 577.13 303.85C577.13 303.85 517.23 312.33 503.39 304.7C494.77 299.95 505.76 234.38 505.76 234.38L485 248.53C485 248.53 460 338.65 457.63 357.25C455.26 375.85 448.1 387.09 482.25 413.6L493.48 480.11L456.88 667.37C456.88 667.37 597.32 677.37 647.2 664.37C697.08 651.37 629 480.11 629 480.11L639.11 416.82C639.11 416.82 582.11 363.72 611.19 230.43L596 221.72Z" fill="#EFAF00" stroke="black" stroke-width="4" stroke-linecap="round" stroke-linejoin="round"/>
<path d="M687.5 438.8C683.57 437.19 671.74 400.92 700.21 393.14C737.54 382.93 744.98 402.22 743.99 418.19C742.08 449 722.54 453.13 687.5 438.8Z" fill="#F7F3EF" stroke="#070707" stroke-width="4" stroke-linecap="round" stroke-linejoin="round"/>
<path d="M547.3 473.64L546.9 473.43C546.172 473.049 545.626 472.395 545.38 471.611C545.135 470.827 545.21 469.978 545.59 469.25L569.12 418.3C569.308 417.94 569.564 417.621 569.876 417.36C570.187 417.099 570.546 416.903 570.933 416.781C571.321 416.659 571.728 416.615 572.132 416.651C572.537 416.687 572.93 416.802 573.29 416.99L578.63 419.79C578.99 419.978 579.309 420.234 579.57 420.546C579.83 420.857 580.027 421.216 580.149 421.604C580.27 421.991 580.315 422.398 580.279 422.803C580.243 423.207 580.128 423.6 579.94 423.96L551.48 472.33C551.099 473.057 550.445 473.604 549.661 473.85C548.877 474.095 548.028 474.02 547.3 473.64Z" fill="#F7F3EF" stroke="#070707" stroke-width="4" stroke-linecap="round" stroke-linejoin="round"/>
<path d="M549.298 473.596L545.772 471.75L502.897 553.657L506.423 555.503L549.298 473.596Z" fill="#F7F3EF" stroke="#070707" stroke-width="4" stroke-linecap="round" stroke-linejoin="round"/>
<path d="M510.15 576.59C504.59 587.19 491.15 597.35 484.15 593.72C477.15 590.09 477.89 573.24 483.44 562.63C488.99 552.02 498.01 550.63 504.83 554.21C511.65 557.79 515.7 566 510.15 576.59Z" fill="#F7F3EF" stroke="#070707" stroke-width="4" stroke-linecap="round" stroke-linejoin="round"/>
<path d="M717.88 446.82C684.75 466.59 616.88 495.69 578.48 504.22C573.79 514.7 558.16 530.93 554.27 531.74C549.79 532.68 548.13 530.47 543.71 528.85C536.16 526.07 539.78 520.63 534.8 519.66C529.82 518.69 528.7 511.18 528.7 511.18C528.7 511.18 524.01 511.79 521.19 519.51C517.67 529.16 512.54 526.92 512.54 526.92C512.54 526.92 515.16 511.29 517.4 508.34C521.064 503.564 525.209 499.178 529.77 495.25C532.56 492.89 556.67 488.36 568.64 488.48C598.64 462.74 649.64 425.02 683.38 411.08C707.59 401.07 747.69 429 717.88 446.82Z" fill="#FCBE9F" stroke="#070707" stroke-width="4" stroke-linecap="round" stroke-linejoin="round"/>
<path d="M338.24 431.08C334.31 429.47 322.64 390.34 350.95 382.03C379.26 373.72 399.7 393.15 400.83 409.11C401.35 416.59 373.28 445.41 338.24 431.08Z" fill="#F7F3EF" stroke="#070707" stroke-width="4" stroke-linecap="round" stroke-linejoin="round"/>
<path d="M366.67 460.27C362.17 458.47 316.67 430.47 344.44 408.61C380.72 380.04 393.66 431.42 393.66 431.42L366.67 460.27Z" fill="#FCBE9F" stroke="#070707" stroke-width="4" stroke-linecap="round" stroke-linejoin="round"/>
<path d="M410.78 440.28L410.36 440.45C409.987 440.61 409.586 440.694 409.181 440.699C408.775 440.704 408.372 440.628 407.996 440.476C407.62 440.325 407.277 440.101 406.988 439.816C406.698 439.532 406.468 439.193 406.31 438.82L381.85 388.3C381.69 387.926 381.606 387.525 381.602 387.119C381.598 386.713 381.675 386.31 381.827 385.934C381.98 385.557 382.205 385.215 382.49 384.926C382.776 384.637 383.115 384.407 383.49 384.25L389.03 381.89C389.786 381.573 390.637 381.567 391.397 381.874C392.158 382.181 392.766 382.776 393.09 383.53L412.42 436.22C412.74 436.976 412.747 437.828 412.439 438.589C412.132 439.35 411.535 439.958 410.78 440.28Z" fill="#F7F3EF" stroke="#070707" stroke-width="4" stroke-linecap="round" stroke-linejoin="round"/>
<path d="M412.005 438.711L408.341 440.266L444.449 525.373L448.113 523.818L412.005 438.711Z" fill="#F7F3EF" stroke="#070707" stroke-width="4" stroke-linecap="round" stroke-linejoin="round"/>
<path d="M466.78 534.31C471.46 545.31 470.78 562.18 463.56 565.24C456.34 568.3 443.76 557.09 439.08 546.07C434.4 535.05 439.08 527.2 446.14 524.2C453.2 521.2 462.11 523.29 466.78 534.31Z" fill="#F7F3EF" stroke="#070707" stroke-width="4" stroke-linecap="round" stroke-linejoin="round"/>
<path d="M390.42 431.6C392.82 430.04 398.83 427.3 407.22 434.87C415.61 442.44 438.48 467.95 435.22 471.16C429.05 477.32 416.84 456.63 414.41 458.96C413.71 459.63 414.01 461.24 413.77 462.96C413.662 464.012 413.233 465.006 412.54 465.806C411.848 466.605 410.926 467.173 409.9 467.43C406.08 468.77 409.95 473.66 404.57 476.61C399.19 479.56 401.82 481 397.97 485.61C393.62 490.78 368.97 475.49 365.11 467.28C361.25 459.07 380.18 438.27 390.42 431.6Z" fill="#FCBE9F" stroke="#070707" stroke-width="4" stroke-linecap="round" stroke-linejoin="round"/>
<path d="M470 172.12C470 172.12 478.19 176.61 481.51 167.63" stroke="#070707" stroke-width="4" stroke-linecap="round" stroke-linejoin="round"/>
<path d="M497.82 161.63C497.82 161.63 506.94 167.12 513.67 156.49" stroke="#070707" stroke-width="4" stroke-linecap="round" stroke-linejoin="round"/>
<path d="M488.12 166.34V180.68L494.63 185.16" stroke="#070707" stroke-width="4" stroke-linecap="round" stroke-linejoin="round"/>
<path d="M500 194.16C500 194.16 509.07 191.31 510.34 184.6" stroke="#070707" stroke-width="4" stroke-linecap="round" stroke-linejoin="round"/>
<path d="M500.37 320.36H575.81" stroke="#070707" stroke-width="4" stroke-linecap="round" stroke-linejoin="round"/>
<path d="M503.63 446.7H541.08" stroke="#070707" stroke-width="4" stroke-linecap="round" stroke-linejoin="round"/>
<path d="M581.868 166.472C590.144 157.351 594.054 147.418 590.602 144.285C587.15 141.153 577.643 146.008 569.367 155.129C561.091 164.249 557.18 174.183 560.632 177.315C564.084 180.447 573.591 175.592 581.868 166.472Z" fill="#E57B07" stroke="#070707" stroke-width="4" stroke-linecap="round" stroke-linejoin="round"/>
</g>
<defs>
<clipPath id="clip0_1_3">
<rect width="1051.1" height="1340.81" fill="white"/>
</clipPath>
</defs>
</svg>
