<svg width="244" height="41" viewBox="0 0 244 41" fill="none" xmlns="http://www.w3.org/2000/svg">
<path d="M22.1573 31.498C19.2862 31.498 17.0108 30.5068 15.3311 28.5244C13.6612 26.542 12.8262 23.8467 12.8262 20.4385C12.8262 17.0303 13.6612 14.335 15.3311 12.3525C17.0011 10.3604 19.2716 9.36426 22.1427 9.36426C24.3692 9.36426 26.2735 9.99902 27.8555 11.2686C29.4376 12.5381 30.3848 14.1934 30.6973 16.2344H28.0167C27.6651 14.8672 26.962 13.7881 25.9073 12.9971C24.8526 12.1963 23.5977 11.7959 22.1427 11.7959C20.1114 11.7959 18.5001 12.5723 17.3087 14.125C16.127 15.6777 15.5362 17.7822 15.5362 20.4385C15.5362 23.0947 16.1319 25.1992 17.3233 26.752C18.5147 28.2949 20.1261 29.0664 22.1573 29.0664C23.6319 29.0664 24.8917 28.7148 25.9366 28.0117C26.9913 27.2988 27.6846 26.332 28.0167 25.1113H30.6973C30.3458 27.0547 29.3936 28.6074 27.8409 29.7695C26.2979 30.9219 24.4034 31.498 22.1573 31.498ZM46.2855 29.0957C44.9867 30.5508 43.2143 31.2783 40.9682 31.2783C38.7221 31.2783 36.9447 30.5508 35.6361 29.0957C34.3373 27.6309 33.6879 25.6338 33.6879 23.1045C33.6879 20.5654 34.3373 18.5684 35.6361 17.1133C36.935 15.6582 38.7123 14.9307 40.9682 14.9307C43.224 14.9307 45.0014 15.6582 46.3002 17.1133C47.599 18.5684 48.2484 20.5654 48.2484 23.1045C48.2484 25.6338 47.5941 27.6309 46.2855 29.0957ZM37.5111 27.4697C38.3217 28.4951 39.474 29.0078 40.9682 29.0078C42.4623 29.0078 43.6146 28.4951 44.4252 27.4697C45.2357 26.4346 45.641 24.9795 45.641 23.1045C45.641 21.2295 45.2357 19.7793 44.4252 18.7539C43.6146 17.7188 42.4623 17.2012 40.9682 17.2012C39.474 17.2012 38.3217 17.7188 37.5111 18.7539C36.7006 19.7793 36.2953 21.2295 36.2953 23.1045C36.2953 24.9795 36.7006 26.4346 37.5111 27.4697ZM63.6902 29.0957C62.3913 30.5508 60.6189 31.2783 58.3728 31.2783C56.1267 31.2783 54.3493 30.5508 53.0407 29.0957C51.7419 27.6309 51.0925 25.6338 51.0925 23.1045C51.0925 20.5654 51.7419 18.5684 53.0407 17.1133C54.3396 15.6582 56.1169 14.9307 58.3728 14.9307C60.6286 14.9307 62.406 15.6582 63.7048 17.1133C65.0036 18.5684 65.653 20.5654 65.653 23.1045C65.653 25.6338 64.9987 27.6309 63.6902 29.0957ZM54.9157 27.4697C55.7263 28.4951 56.8786 29.0078 58.3728 29.0078C59.8669 29.0078 61.0193 28.4951 61.8298 27.4697C62.6404 26.4346 63.0456 24.9795 63.0456 23.1045C63.0456 21.2295 62.6404 19.7793 61.8298 18.7539C61.0193 17.7188 59.8669 17.2012 58.3728 17.2012C56.8786 17.2012 55.7263 17.7188 54.9157 18.7539C54.1052 19.7793 53.6999 21.2295 53.6999 23.1045C53.6999 24.9795 54.1052 26.4346 54.9157 27.4697ZM72.1885 22.1084L79.044 15.209H82.1348L75.3379 21.9766L82.5889 31H79.3809L73.4629 23.6025L71.9541 25.0088V31H69.4346V8.93945H71.9541V22.1084H72.1885Z" fill="black" fill-opacity="0.6"/>
<path d="M90.7504 31V13.041H84.2464V9.8623H101.048V13.041H94.5296V31H90.7504ZM104.449 31V8.79297H108.096V17.4355H108.345C109.107 15.7217 110.645 14.6816 112.96 14.6816C116.534 14.6816 118.482 16.835 118.482 20.6436V31H114.835V21.4932C114.835 19.0029 113.824 17.7432 111.612 17.7432C109.444 17.7432 108.096 19.2666 108.096 21.6689V31H104.449ZM126.834 31.2637C123.787 31.2637 121.575 29.3887 121.575 26.4736V26.4443C121.575 23.5879 123.758 21.918 127.654 21.6836L131.771 21.4346V20.0576C131.771 18.4609 130.73 17.582 128.768 17.582C127.098 17.582 126.014 18.1826 125.647 19.2373L125.633 19.2959H122.19L122.205 19.1641C122.557 16.4688 125.135 14.6816 128.943 14.6816C133.06 14.6816 135.374 16.6738 135.374 20.0576V31H131.771V28.8027H131.521C130.643 30.3555 128.943 31.2637 126.834 31.2637ZM125.179 26.2979C125.179 27.6602 126.336 28.4658 127.947 28.4658C130.145 28.4658 131.771 27.0303 131.771 25.126V23.8369L128.167 24.0713C126.131 24.2031 125.179 24.9502 125.179 26.2686V26.2979ZM145.733 31.0732C142.056 31.0732 140.547 29.8428 140.547 26.752V17.8164H138.057V14.9893H140.547V11.0635H144.253V14.9893H147.637V17.8164H144.253V25.8877C144.253 27.4844 144.883 28.1582 146.407 28.1582C146.919 28.1582 147.198 28.1436 147.637 28.0996V30.9121C147.11 31.0146 146.436 31.0732 145.733 31.0732Z" fill="black" fill-opacity="0.8"/>
<path d="M156.414 31V13.5098H150.071V9.8623H167.18V13.5098H160.838V31H156.414ZM170.493 31V8.70508H174.77V17.3623H175.034C175.767 15.6191 177.363 14.5205 179.663 14.5205C183.252 14.5205 185.186 16.7178 185.186 20.5703V31H180.908V21.5371C180.908 19.2666 179.971 18.0654 177.949 18.0654C175.972 18.0654 174.77 19.4863 174.77 21.6689V31H170.493ZM191.194 12.3965C189.875 12.3965 188.777 11.3418 188.777 10.0234C188.777 8.69043 189.875 7.63574 191.194 7.63574C192.512 7.63574 193.596 8.69043 193.596 10.0234C193.596 11.3418 192.512 12.3965 191.194 12.3965ZM189.04 31V14.8721H193.318V31H189.04ZM197.304 31V14.8721H201.582V17.3623H201.845C202.578 15.6191 204.174 14.5205 206.474 14.5205C210.063 14.5205 211.997 16.7178 211.997 20.5703V31H207.719V21.5371C207.719 19.2666 206.782 18.0654 204.76 18.0654C202.783 18.0654 201.582 19.4863 201.582 21.6689V31H197.304ZM222.941 36.6689C218.474 36.6689 215.881 34.7939 215.529 32.0547V31.9814H219.763L219.777 32.04C220.012 32.9775 221.125 33.6221 223.029 33.6221C225.314 33.6221 226.647 32.5527 226.647 30.6777V27.6748H226.384C225.49 29.374 223.791 30.2969 221.55 30.2969C217.492 30.2969 214.987 27.1621 214.987 22.5771V22.5479C214.987 17.8018 217.492 14.6084 221.623 14.6084C223.835 14.6084 225.563 15.6924 226.428 17.5088H226.633V14.8721H230.91V30.502C230.91 34.2812 227.819 36.6689 222.941 36.6689ZM223 27.0156C225.314 27.0156 226.691 25.2139 226.691 22.5625V22.5332C226.691 19.8818 225.3 18.0801 223 18.0801C220.7 18.0801 219.367 19.8818 219.367 22.5332V22.5625C219.367 25.2139 220.685 27.0156 223 27.0156Z" fill="#FC6011"/>
</svg>
