<svg width="1052" height="1341" viewBox="0 0 1052 1341" fill="none" xmlns="http://www.w3.org/2000/svg">
<g clip-path="url(#clip0_1_52)">
<path d="M3887.47 -46.66H-3309.55V2233.24H3887.47V-46.66Z" fill="#F7F3EF"/>
<path d="M734.82 1213.85C734.82 1228.92 746.07 1234.43 746.06 1261.18H625.26C625.26 1261.18 623.26 1233.58 652.42 1232.74C677.49 1232.01 694.74 1216.18 694.47 1213.85C694.2 1211.52 734.82 1213.85 734.82 1213.85Z" fill="#1C0E0C"/>
<path d="M743.66 1264.75H626.93C626.294 1264.75 625.683 1264.5 625.233 1264.05C624.783 1263.6 624.53 1262.99 624.53 1262.35V1258.44H746.06V1262.35C746.06 1262.99 745.807 1263.6 745.357 1264.05C744.907 1264.5 744.297 1264.75 743.66 1264.75Z" fill="#F7F3EF" stroke="#070707" stroke-width="4" stroke-linecap="round" stroke-linejoin="round"/>
<path d="M495.79 1213.85C495.85 1228.92 507.05 1234.43 507.04 1261.18H386.24C386.24 1261.18 384.18 1233.58 413.39 1232.74C438.47 1232.01 455.72 1216.18 455.44 1213.85C455.16 1211.52 495.79 1213.85 495.79 1213.85Z" fill="#1C0E0C"/>
<path d="M504.64 1264.75H387.9C387.264 1264.75 386.653 1264.5 386.203 1264.05C385.753 1263.6 385.5 1262.99 385.5 1262.35V1258.44H507.04V1262.35C507.04 1262.99 506.787 1263.6 506.337 1264.05C505.887 1264.5 505.277 1264.75 504.64 1264.75Z" fill="#F7F3EF" stroke="#070707" stroke-width="4" stroke-linecap="round" stroke-linejoin="round"/>
<path d="M490 535.43L726.12 535.18C745.78 646.95 707.55 801.05 706.12 819.98C702.12 874.98 728.39 909.37 741.9 964.98C763.9 1055.73 758.43 1176.14 742.16 1221.78L678.16 1222.21C676.3 1206.48 600.52 894.21 596.81 856.44L574.62 750.1L551.4 845.86C533.07 902.48 541.2 902.32 543.81 959.5C548.29 1057.89 530.44 1179.7 503.88 1221.39L431.34 1220.28C431.45 1049.65 425.15 884.95 427.28 852.92C427.78 832.9 452.49 669.73 490 535.43Z" fill="#F7F3EF" stroke="#070707" stroke-width="4" stroke-linecap="round" stroke-linejoin="round"/>
<path d="M574.62 750.1C571.01 734.9 562.98 674.1 557.52 671.53Z" fill="#F7F3EF"/>
<path d="M574.62 750.1C571.01 734.9 562.98 674.1 557.52 671.53" stroke="#070707" stroke-width="4" stroke-linecap="round" stroke-linejoin="round"/>
<path d="M738.4 617.84C738.4 617.84 734.99 377.84 684.51 285.5C655.13 231.72 544.37 208.2 529.42 207.23C509.83 205.97 475.05 206.77 418.3 225.5C367.92 242.13 360.87 287.72 382.76 341.77C404.65 395.82 483.16 535.18 483.16 535.18C479.96 559.56 465.65 621.54 465.65 621.54C465.65 621.54 620.93 633.39 738.4 617.84Z" fill="#EFAF00" stroke="black" stroke-width="4" stroke-linecap="round" stroke-linejoin="round"/>
<path d="M549.74 211C549.74 211 554.02 251.73 503.4 280.27L494.4 258.48L523.33 204.67L549.74 211Z" fill="#1C0E0C"/>
<path d="M401.86 232.58C401.86 232.58 418.13 289.34 465.65 293.17L463.65 274.27L437.18 215.54L401.86 232.58Z" fill="#1C0E0C"/>
<path d="M495.42 263.93L508.84 296C509.473 298.299 509.566 300.713 509.113 303.054C508.66 305.395 507.672 307.6 506.228 309.496C504.783 311.393 502.919 312.931 500.783 313.989C498.646 315.048 496.294 315.599 493.91 315.6H445.54C442.923 315.599 440.346 316.25 438.043 317.493C435.739 318.736 433.781 320.533 432.345 322.721C430.908 324.909 430.039 327.42 429.815 330.028C429.59 332.636 430.018 335.259 431.06 337.66L532.69 562.61C535.07 567.78 528.15 624.52 528.15 624.52H608.51" fill="#EFAF00"/>
<path d="M495.42 263.93L508.84 296C509.473 298.299 509.566 300.713 509.113 303.054C508.66 305.395 507.672 307.6 506.228 309.496C504.783 311.393 502.919 312.931 500.783 313.989C498.646 315.048 496.294 315.599 493.91 315.6H445.54C442.923 315.599 440.346 316.25 438.043 317.493C435.739 318.736 433.781 320.533 432.345 322.721C430.908 324.909 430.039 327.42 429.815 330.028C429.59 332.636 430.018 335.259 431.06 337.66L532.69 562.61C535.07 567.78 528.15 624.52 528.15 624.52H608.51" stroke="black" stroke-width="4" stroke-linecap="round" stroke-linejoin="round"/>
<path d="M463.98 362.97C468.2 362.97 471.62 359.55 471.62 355.33C471.62 351.111 468.2 347.69 463.98 347.69C459.761 347.69 456.34 351.111 456.34 355.33C456.34 359.55 459.761 362.97 463.98 362.97Z" fill="#F7F3EF" stroke="#070707" stroke-width="4" stroke-linecap="round" stroke-linejoin="round"/>
<path d="M505.22 362.97C509.44 362.97 512.86 359.55 512.86 355.33C512.86 351.111 509.44 347.69 505.22 347.69C501.001 347.69 497.58 351.111 497.58 355.33C497.58 359.55 501.001 362.97 505.22 362.97Z" fill="#F7F3EF" stroke="#070707" stroke-width="4" stroke-linecap="round" stroke-linejoin="round"/>
<path d="M484.85 415.91C489.069 415.91 492.49 412.49 492.49 408.27C492.49 404.051 489.069 400.63 484.85 400.63C480.631 400.63 477.21 404.051 477.21 408.27C477.21 412.49 480.631 415.91 484.85 415.91Z" fill="#F7F3EF" stroke="#070707" stroke-width="4" stroke-linecap="round" stroke-linejoin="round"/>
<path d="M526.09 415.91C530.309 415.91 533.73 412.49 533.73 408.27C533.73 404.051 530.309 400.63 526.09 400.63C521.871 400.63 518.45 404.051 518.45 408.27C518.45 412.49 521.871 415.91 526.09 415.91Z" fill="#F7F3EF" stroke="#070707" stroke-width="4" stroke-linecap="round" stroke-linejoin="round"/>
<path d="M507.02 469.45C511.151 469.45 514.5 466.101 514.5 461.97C514.5 457.839 511.151 454.49 507.02 454.49C502.889 454.49 499.54 457.839 499.54 461.97C499.54 466.101 502.889 469.45 507.02 469.45Z" fill="#F7F3EF" stroke="#070707" stroke-width="4" stroke-linecap="round" stroke-linejoin="round"/>
<path d="M544.46 468.96C548.591 468.96 551.94 465.611 551.94 461.48C551.94 457.349 548.591 454 544.46 454C540.329 454 536.98 457.349 536.98 461.48C536.98 465.611 540.329 468.96 544.46 468.96Z" fill="#F7F3EF" stroke="#070707" stroke-width="4" stroke-linecap="round" stroke-linejoin="round"/>
<path d="M401.86 232.58C380.97 240.58 348.25 258.27 339.7 283.47C331.15 308.67 309.52 377.61 309.52 377.61C309.52 377.61 273.69 344.28 266.93 334C266.93 334 265.1 354.75 222.23 355.66C222.23 355.66 245.71 519.29 333.23 523.2C367.81 524.75 402.8 478.2 407.72 394.81L401.86 232.58Z" fill="#EFAF00" stroke="black" stroke-width="4" stroke-linecap="round" stroke-linejoin="round"/>
<path d="M307.48 373C316.94 384.46 337.48 415.39 347.17 437.69Z" fill="#F7F3EF"/>
<path d="M307.48 373C316.94 384.46 337.48 415.39 347.17 437.69" stroke="#070707" stroke-width="4" stroke-linecap="round" stroke-linejoin="round"/>
<path d="M268.72 336.12C268.72 336.12 245.25 294.4 226.82 285.67C220.82 282.8 188.61 297.14 185.82 300.47C183.03 303.8 176.13 330.2 176.13 330.2C176.13 330.2 187 333.1 191 325.27C195.62 316.27 203.58 306.91 214.08 309.83C220.08 311.51 232.83 326.57 227.33 330.2C221.83 333.83 213.45 323.2 205.54 321.35C197.63 319.5 191.87 325.35 191.87 325.35C191.87 325.35 203.34 331 208 340.87C210.76 346.69 217.26 358.11 234.65 355.04C257.3 351.05 268.72 336.12 268.72 336.12Z" fill="#C48270" stroke="#0F0F0F" stroke-width="4" stroke-linecap="round" stroke-linejoin="round"/>
<path d="M185.8 300.47C185.8 300.47 174 311 160.65 316.61C160.65 316.61 164.32 327.05 178.96 319.86L185.8 300.47Z" fill="#1C0E0C"/>
<path d="M221.75 355.14C221.75 355.14 253.75 354.69 268.75 336.14L281.24 350.61C281.24 350.61 264.89 376.35 225.32 375.27L221.75 355.14Z" fill="#EFAF00" stroke="black" stroke-width="4" stroke-linecap="round" stroke-linejoin="round"/>
<path d="M196.58 345.64C196.742 346.132 197.047 346.565 197.455 346.884C197.863 347.203 198.357 347.393 198.874 347.432C199.39 347.47 199.907 347.355 200.358 347.1C200.809 346.845 201.174 346.462 201.407 345.999C201.64 345.537 201.731 345.015 201.669 344.501C201.606 343.987 201.392 343.503 201.054 343.11C200.716 342.717 200.269 342.434 199.77 342.295C199.271 342.156 198.742 342.168 198.25 342.33C197.923 342.437 197.62 342.608 197.359 342.833C197.098 343.058 196.884 343.331 196.729 343.639C196.574 343.946 196.481 344.281 196.455 344.625C196.43 344.968 196.472 345.313 196.58 345.64Z" fill="#F7F3EF" stroke="#070707" stroke-width="4" stroke-linecap="round" stroke-linejoin="round"/>
<path d="M170.57 372.2C170.701 372.594 170.946 372.939 171.273 373.194C171.601 373.449 171.996 373.601 172.41 373.631C172.824 373.661 173.237 373.568 173.598 373.363C173.959 373.158 174.251 372.851 174.438 372.481C174.624 372.11 174.697 371.693 174.647 371.281C174.596 370.87 174.425 370.482 174.155 370.167C173.884 369.853 173.527 369.625 173.127 369.514C172.728 369.402 172.304 369.411 171.91 369.54C171.647 369.626 171.403 369.763 171.193 369.944C170.983 370.124 170.811 370.344 170.687 370.591C170.562 370.839 170.488 371.108 170.468 371.384C170.448 371.66 170.482 371.937 170.57 372.2Z" fill="#F7F3EF" stroke="#070707" stroke-width="4" stroke-linecap="round" stroke-linejoin="round"/>
<path d="M180.23 426.54C180.393 427.034 180.699 427.469 181.109 427.789C181.519 428.109 182.015 428.301 182.534 428.339C183.053 428.378 183.571 428.261 184.024 428.005C184.477 427.748 184.843 427.363 185.077 426.898C185.311 426.433 185.402 425.91 185.338 425.393C185.274 424.877 185.058 424.391 184.718 423.997C184.378 423.603 183.928 423.319 183.427 423.181C182.925 423.043 182.394 423.056 181.9 423.22C181.24 423.442 180.694 423.915 180.382 424.536C180.069 425.158 180.014 425.878 180.23 426.54Z" fill="#F7F3EF" stroke="#070707" stroke-width="4" stroke-linecap="round" stroke-linejoin="round"/>
<path d="M202.11 433.3C202.289 433.843 202.625 434.32 203.075 434.672C203.526 435.024 204.07 435.234 204.64 435.277C205.21 435.319 205.78 435.192 206.278 434.91C206.775 434.629 207.178 434.206 207.435 433.696C207.693 433.185 207.793 432.61 207.723 432.043C207.653 431.475 207.417 430.942 207.044 430.509C206.671 430.075 206.178 429.763 205.627 429.61C205.077 429.457 204.493 429.471 203.95 429.65C203.59 429.769 203.256 429.957 202.968 430.205C202.681 430.453 202.445 430.755 202.274 431.094C202.103 431.433 202.001 431.802 201.973 432.181C201.944 432.559 201.991 432.939 202.11 433.3Z" fill="#F7F3EF" stroke="#070707" stroke-width="4" stroke-linecap="round" stroke-linejoin="round"/>
<path d="M188.44 475.06C188.931 475.349 189.496 475.486 190.065 475.454C190.633 475.423 191.18 475.224 191.636 474.883C192.092 474.542 192.437 474.074 192.628 473.538C192.819 473.001 192.847 472.42 192.709 471.868C192.57 471.315 192.272 470.816 191.851 470.433C191.43 470.049 190.906 469.798 190.343 469.712C189.78 469.626 189.204 469.708 188.688 469.948C188.171 470.187 187.737 470.574 187.44 471.06C187.238 471.387 187.104 471.751 187.045 472.131C186.986 472.51 187.004 472.898 187.097 473.271C187.19 473.643 187.357 473.994 187.588 474.301C187.818 474.608 188.108 474.866 188.44 475.06Z" fill="#F7F3EF" stroke="#070707" stroke-width="4" stroke-linecap="round" stroke-linejoin="round"/>
<path d="M179.19 460.57C179.779 460.371 180.296 460.002 180.676 459.51C181.056 459.017 181.282 458.423 181.325 457.803C181.368 457.182 181.226 456.563 180.917 456.023C180.609 455.483 180.147 455.046 179.591 454.768C179.035 454.49 178.408 454.383 177.791 454.46C177.174 454.537 176.594 454.795 176.123 455.202C175.652 455.608 175.313 456.145 175.147 456.745C174.981 457.344 174.996 457.979 175.19 458.57C175.321 458.964 175.529 459.329 175.801 459.642C176.073 459.956 176.404 460.214 176.775 460.399C177.147 460.585 177.551 460.696 177.966 460.725C178.38 460.754 178.796 460.702 179.19 460.57Z" fill="#F7F3EF" stroke="#070707" stroke-width="4" stroke-linecap="round" stroke-linejoin="round"/>
<path d="M200.66 404.77C200.84 405.313 201.176 405.79 201.627 406.142C202.078 406.493 202.624 406.703 203.194 406.744C203.764 406.786 204.334 406.657 204.831 406.374C205.328 406.092 205.731 405.668 205.987 405.157C206.243 404.646 206.342 404.07 206.271 403.503C206.2 402.935 205.962 402.402 205.588 401.97C205.213 401.537 204.719 401.226 204.168 401.075C203.616 400.923 203.032 400.939 202.49 401.12C201.764 401.362 201.163 401.882 200.82 402.567C200.477 403.251 200.419 404.043 200.66 404.77Z" fill="#F7F3EF" stroke="#070707" stroke-width="4" stroke-linecap="round" stroke-linejoin="round"/>
<path d="M195.34 375.79C195.501 376.285 195.806 376.721 196.216 377.043C196.625 377.365 197.121 377.558 197.64 377.598C198.16 377.637 198.679 377.522 199.133 377.266C199.587 377.01 199.954 376.625 200.189 376.16C200.423 375.695 200.515 375.171 200.451 374.654C200.387 374.137 200.171 373.65 199.831 373.256C199.49 372.862 199.041 372.578 198.538 372.44C198.036 372.301 197.504 372.315 197.01 372.48C196.683 372.587 196.38 372.758 196.119 372.983C195.858 373.208 195.644 373.481 195.489 373.789C195.334 374.096 195.241 374.431 195.215 374.775C195.19 375.118 195.232 375.463 195.34 375.79Z" fill="#F7F3EF" stroke="#070707" stroke-width="4" stroke-linecap="round" stroke-linejoin="round"/>
<path d="M184.06 384.37C184.228 384.879 184.543 385.327 184.965 385.658C185.388 385.988 185.899 386.185 186.434 386.225C186.969 386.264 187.503 386.144 187.97 385.88C188.436 385.616 188.814 385.219 189.055 384.74C189.296 384.261 189.389 383.721 189.323 383.189C189.257 382.656 189.035 382.156 188.684 381.75C188.334 381.344 187.87 381.052 187.353 380.909C186.836 380.767 186.289 380.781 185.78 380.95C185.099 381.176 184.535 381.663 184.213 382.304C183.89 382.946 183.835 383.688 184.06 384.37Z" fill="#F7F3EF" stroke="#070707" stroke-width="4" stroke-linecap="round" stroke-linejoin="round"/>
<path d="M186.38 366.78C186.548 367.289 186.863 367.737 187.286 368.067C187.708 368.398 188.219 368.595 188.754 368.635C189.289 368.674 189.823 368.554 190.29 368.29C190.756 368.025 191.134 367.629 191.375 367.15C191.616 366.67 191.709 366.131 191.643 365.599C191.577 365.066 191.355 364.566 191.004 364.16C190.654 363.754 190.191 363.462 189.674 363.319C189.157 363.177 188.609 363.191 188.1 363.36C187.419 363.586 186.855 364.073 186.533 364.714C186.21 365.355 186.155 366.098 186.38 366.78Z" fill="#F7F3EF" stroke="#070707" stroke-width="4" stroke-linecap="round" stroke-linejoin="round"/>
<path d="M179.86 401.18C180.028 401.689 180.343 402.137 180.766 402.468C181.188 402.798 181.699 402.995 182.234 403.035C182.769 403.074 183.303 402.954 183.77 402.69C184.236 402.425 184.614 402.029 184.855 401.55C185.096 401.07 185.189 400.531 185.123 399.999C185.057 399.466 184.835 398.966 184.484 398.56C184.134 398.154 183.671 397.862 183.154 397.719C182.637 397.577 182.089 397.591 181.58 397.76C180.899 397.986 180.335 398.473 180.013 399.114C179.69 399.755 179.635 400.498 179.86 401.18Z" fill="#F7F3EF" stroke="#070707" stroke-width="4" stroke-linecap="round" stroke-linejoin="round"/>
<path d="M191 449.51C191.168 450.019 191.483 450.467 191.905 450.798C192.328 451.128 192.839 451.325 193.374 451.365C193.909 451.404 194.443 451.284 194.91 451.02C195.376 450.755 195.754 450.359 195.995 449.88C196.236 449.401 196.329 448.861 196.263 448.329C196.197 447.796 195.975 447.296 195.624 446.89C195.274 446.484 194.81 446.192 194.293 446.049C193.776 445.907 193.229 445.921 192.72 446.09C192.039 446.316 191.475 446.803 191.153 447.444C190.83 448.085 190.775 448.828 191 449.51Z" fill="#F7F3EF" stroke="#070707" stroke-width="4" stroke-linecap="round" stroke-linejoin="round"/>
<path d="M178.39 503.08C178.558 503.589 178.873 504.037 179.296 504.368C179.718 504.698 180.229 504.895 180.764 504.935C181.299 504.974 181.833 504.854 182.3 504.59C182.766 504.325 183.144 503.929 183.385 503.45C183.626 502.97 183.719 502.431 183.653 501.899C183.587 501.366 183.365 500.866 183.014 500.46C182.664 500.054 182.201 499.762 181.684 499.619C181.167 499.477 180.619 499.491 180.11 499.66C179.429 499.886 178.865 500.373 178.543 501.014C178.22 501.656 178.165 502.398 178.39 503.08Z" fill="#F7F3EF" stroke="#070707" stroke-width="4" stroke-linecap="round" stroke-linejoin="round"/>
<path d="M198.07 480.69C198.238 481.199 198.553 481.647 198.975 481.978C199.398 482.308 199.909 482.505 200.444 482.545C200.979 482.584 201.513 482.464 201.98 482.2C202.446 481.935 202.824 481.539 203.065 481.06C203.306 480.581 203.399 480.041 203.333 479.509C203.267 478.976 203.045 478.476 202.694 478.07C202.344 477.664 201.88 477.372 201.363 477.229C200.847 477.087 200.299 477.101 199.79 477.27C199.109 477.496 198.545 477.983 198.223 478.624C197.9 479.266 197.845 480.008 198.07 480.69Z" fill="#F7F3EF" stroke="#070707" stroke-width="4" stroke-linecap="round" stroke-linejoin="round"/>
<path d="M165.08 482.64C166.577 482.64 167.79 481.427 167.79 479.93C167.79 478.433 166.577 477.22 165.08 477.22C163.583 477.22 162.37 478.433 162.37 479.93C162.37 481.427 163.583 482.64 165.08 482.64Z" fill="#F7F3EF" stroke="#070707" stroke-width="4" stroke-linecap="round" stroke-linejoin="round"/>
<path d="M217.06 480.24C217.228 480.749 217.543 481.197 217.965 481.528C218.388 481.858 218.899 482.055 219.434 482.095C219.969 482.134 220.503 482.014 220.97 481.75C221.436 481.486 221.814 481.089 222.055 480.61C222.296 480.131 222.389 479.591 222.323 479.059C222.257 478.526 222.035 478.026 221.684 477.62C221.334 477.214 220.87 476.922 220.353 476.779C219.836 476.637 219.289 476.651 218.78 476.82C218.099 477.046 217.535 477.533 217.213 478.174C216.89 478.816 216.835 479.558 217.06 480.24Z" fill="#F7F3EF" stroke="#070707" stroke-width="4" stroke-linecap="round" stroke-linejoin="round"/>
<path d="M191.18 414.51C191.348 415.019 191.663 415.467 192.085 415.798C192.508 416.128 193.019 416.325 193.554 416.365C194.089 416.404 194.623 416.284 195.09 416.02C195.556 415.755 195.934 415.359 196.175 414.88C196.416 414.401 196.509 413.861 196.443 413.329C196.377 412.796 196.155 412.296 195.804 411.89C195.453 411.484 194.99 411.192 194.473 411.049C193.956 410.907 193.409 410.921 192.9 411.09C192.219 411.316 191.655 411.803 191.333 412.444C191.01 413.085 190.955 413.828 191.18 414.51Z" fill="#F7F3EF" stroke="#070707" stroke-width="4" stroke-linecap="round" stroke-linejoin="round"/>
<path d="M166.44 436.34C166.608 436.849 166.923 437.297 167.345 437.628C167.768 437.958 168.279 438.155 168.814 438.195C169.349 438.234 169.883 438.114 170.35 437.85C170.816 437.585 171.194 437.189 171.435 436.71C171.676 436.231 171.769 435.691 171.703 435.159C171.637 434.626 171.415 434.126 171.064 433.72C170.713 433.314 170.25 433.022 169.733 432.879C169.216 432.737 168.669 432.751 168.16 432.92C167.479 433.146 166.915 433.633 166.593 434.274C166.27 434.916 166.215 435.658 166.44 436.34Z" fill="#F7F3EF" stroke="#070707" stroke-width="4" stroke-linecap="round" stroke-linejoin="round"/>
<path d="M211.09 441.46C211.258 441.969 211.573 442.417 211.996 442.748C212.418 443.078 212.929 443.275 213.464 443.315C213.999 443.354 214.533 443.234 215 442.97C215.466 442.705 215.844 442.309 216.085 441.83C216.326 441.35 216.419 440.811 216.353 440.279C216.287 439.746 216.065 439.246 215.714 438.84C215.364 438.434 214.901 438.142 214.384 437.999C213.867 437.857 213.319 437.871 212.81 438.04C212.129 438.266 211.565 438.753 211.243 439.394C210.92 440.036 210.865 440.778 211.09 441.46Z" fill="#F7F3EF" stroke="#070707" stroke-width="4" stroke-linecap="round" stroke-linejoin="round"/>
<path d="M190.71 337.37C190.821 337.711 191.031 338.011 191.313 338.232C191.595 338.453 191.936 338.585 192.294 338.613C192.651 338.64 193.008 338.56 193.32 338.384C193.632 338.208 193.885 337.943 194.046 337.623C194.208 337.303 194.271 336.942 194.227 336.587C194.183 336.231 194.035 335.896 193.8 335.625C193.566 335.354 193.257 335.158 192.911 335.063C192.566 334.968 192.2 334.977 191.86 335.09C191.406 335.241 191.03 335.565 190.814 335.993C190.599 336.42 190.561 336.915 190.71 337.37Z" fill="#F7F3EF" stroke="#070707" stroke-width="4" stroke-linecap="round" stroke-linejoin="round"/>
<path d="M197.72 392.42C197.833 392.757 198.043 393.054 198.325 393.272C198.606 393.489 198.945 393.619 199.3 393.644C199.655 393.669 200.01 393.588 200.319 393.412C200.628 393.236 200.878 392.972 201.037 392.653C201.196 392.335 201.257 391.977 201.213 391.624C201.168 391.271 201.02 390.939 200.787 390.67C200.554 390.401 200.247 390.207 199.904 390.113C199.561 390.019 199.198 390.028 198.86 390.14C198.635 390.215 198.427 390.333 198.248 390.488C198.069 390.643 197.923 390.832 197.817 391.043C197.711 391.255 197.648 391.486 197.631 391.722C197.615 391.958 197.645 392.196 197.72 392.42Z" fill="#F7F3EF" stroke="#070707" stroke-width="4" stroke-linecap="round" stroke-linejoin="round"/>
<path d="M197.72 392.42C197.833 392.757 198.043 393.054 198.325 393.272C198.606 393.489 198.945 393.619 199.3 393.644C199.655 393.669 200.01 393.588 200.319 393.412C200.628 393.236 200.878 392.972 201.037 392.653C201.196 392.335 201.257 391.977 201.213 391.624C201.168 391.271 201.02 390.939 200.787 390.67C200.554 390.401 200.247 390.207 199.904 390.113C199.561 390.019 199.198 390.028 198.86 390.14C198.635 390.215 198.427 390.333 198.248 390.488C198.069 390.643 197.923 390.832 197.817 391.043C197.711 391.255 197.648 391.486 197.631 391.722C197.615 391.958 197.645 392.196 197.72 392.42Z" fill="#F7F3EF" stroke="#070707" stroke-width="4" stroke-linecap="round" stroke-linejoin="round"/>
<path d="M199.68 420.11C199.791 420.451 200.001 420.751 200.283 420.972C200.565 421.193 200.906 421.326 201.264 421.353C201.621 421.38 201.978 421.3 202.29 421.124C202.602 420.948 202.855 420.683 203.016 420.363C203.178 420.043 203.241 419.682 203.197 419.327C203.153 418.971 203.005 418.636 202.77 418.365C202.536 418.094 202.227 417.898 201.881 417.803C201.536 417.708 201.17 417.717 200.83 417.83C200.376 417.981 200 418.305 199.784 418.733C199.569 419.16 199.531 419.655 199.68 420.11Z" fill="#F7F3EF" stroke="#070707" stroke-width="4" stroke-linecap="round" stroke-linejoin="round"/>
<path d="M174.46 410.05C175.454 410.05 176.26 409.244 176.26 408.25C176.26 407.256 175.454 406.45 174.46 406.45C173.466 406.45 172.66 407.256 172.66 408.25C172.66 409.244 173.466 410.05 174.46 410.05Z" fill="#F7F3EF" stroke="#070707" stroke-width="4" stroke-linecap="round" stroke-linejoin="round"/>
<path d="M169.83 421.58C169.941 421.917 170.149 422.214 170.428 422.433C170.708 422.652 171.046 422.784 171.399 422.812C171.753 422.839 172.107 422.762 172.417 422.589C172.727 422.416 172.979 422.155 173.141 421.839C173.303 421.523 173.368 421.166 173.328 420.814C173.288 420.461 173.145 420.128 172.916 419.857C172.687 419.585 172.383 419.388 172.042 419.289C171.701 419.19 171.339 419.194 171 419.3C170.773 419.371 170.562 419.487 170.379 419.641C170.197 419.795 170.047 419.983 169.938 420.195C169.829 420.407 169.764 420.639 169.745 420.877C169.727 421.115 169.755 421.354 169.83 421.58Z" fill="#F7F3EF" stroke="#070707" stroke-width="4" stroke-linecap="round" stroke-linejoin="round"/>
<path d="M199.39 465.94C199.503 466.277 199.713 466.574 199.995 466.792C200.276 467.009 200.616 467.139 200.971 467.164C201.325 467.189 201.68 467.108 201.989 466.932C202.298 466.756 202.548 466.492 202.707 466.173C202.866 465.855 202.927 465.497 202.883 465.144C202.838 464.791 202.69 464.459 202.458 464.19C202.225 463.921 201.917 463.727 201.574 463.633C201.231 463.539 200.868 463.548 200.53 463.66C200.305 463.735 200.097 463.853 199.918 464.008C199.739 464.163 199.593 464.352 199.487 464.563C199.381 464.775 199.318 465.006 199.301 465.242C199.285 465.478 199.315 465.715 199.39 465.94Z" fill="#F7F3EF" stroke="#070707" stroke-width="4" stroke-linecap="round" stroke-linejoin="round"/>
<path d="M216.12 459.71C216.231 460.051 216.441 460.351 216.723 460.572C217.005 460.793 217.346 460.926 217.703 460.953C218.061 460.98 218.418 460.9 218.73 460.724C219.042 460.548 219.295 460.283 219.456 459.963C219.618 459.643 219.681 459.282 219.637 458.927C219.593 458.571 219.445 458.236 219.21 457.965C218.976 457.694 218.667 457.498 218.321 457.403C217.976 457.308 217.61 457.317 217.27 457.43C216.816 457.581 216.44 457.905 216.224 458.333C216.009 458.76 215.971 459.255 216.12 459.71Z" fill="#F7F3EF" stroke="#070707" stroke-width="4" stroke-linecap="round" stroke-linejoin="round"/>
<path d="M176.08 484.19C176.191 484.531 176.401 484.831 176.683 485.052C176.965 485.273 177.306 485.406 177.664 485.433C178.021 485.46 178.378 485.38 178.69 485.204C179.002 485.028 179.255 484.763 179.417 484.443C179.578 484.123 179.641 483.762 179.597 483.407C179.553 483.051 179.405 482.716 179.171 482.445C178.936 482.174 178.627 481.978 178.282 481.883C177.936 481.788 177.57 481.797 177.23 481.91C176.776 482.061 176.4 482.385 176.184 482.813C175.969 483.24 175.931 483.735 176.08 484.19Z" fill="#F7F3EF" stroke="#070707" stroke-width="4" stroke-linecap="round" stroke-linejoin="round"/>
<path d="M196.056 491.423C196.207 490.44 195.533 489.522 194.55 489.371C193.568 489.22 192.649 489.894 192.498 490.877C192.347 491.859 193.021 492.778 194.004 492.929C194.986 493.08 195.905 492.406 196.056 491.423Z" fill="#F7F3EF" stroke="#070707" stroke-width="4" stroke-linecap="round" stroke-linejoin="round"/>
<path d="M162.62 466C162.733 466.337 162.943 466.634 163.225 466.852C163.506 467.069 163.846 467.199 164.201 467.224C164.555 467.249 164.91 467.168 165.219 466.992C165.528 466.816 165.778 466.552 165.937 466.233C166.096 465.915 166.157 465.557 166.113 465.204C166.068 464.851 165.92 464.519 165.687 464.25C165.455 463.981 165.147 463.787 164.804 463.693C164.461 463.599 164.098 463.608 163.76 463.72C163.535 463.795 163.327 463.913 163.148 464.068C162.969 464.223 162.823 464.412 162.717 464.623C162.611 464.835 162.548 465.066 162.531 465.302C162.515 465.538 162.545 465.775 162.62 466Z" fill="#F7F3EF" stroke="#070707" stroke-width="4" stroke-linecap="round" stroke-linejoin="round"/>
<path d="M223.37 469.54C223.482 469.877 223.692 470.174 223.973 470.392C224.253 470.61 224.592 470.741 224.947 470.767C225.301 470.792 225.656 470.713 225.965 470.538C226.274 470.362 226.525 470.099 226.685 469.782C226.845 469.465 226.908 469.107 226.865 468.754C226.822 468.401 226.675 468.069 226.444 467.799C226.212 467.529 225.906 467.334 225.563 467.238C225.221 467.142 224.858 467.15 224.52 467.26C224.294 467.334 224.085 467.451 223.905 467.606C223.725 467.76 223.578 467.949 223.471 468.161C223.364 468.373 223.3 468.604 223.283 468.84C223.265 469.077 223.295 469.315 223.37 469.54Z" fill="#F7F3EF" stroke="#070707" stroke-width="4" stroke-linecap="round" stroke-linejoin="round"/>
<path d="M207 488.87C207.111 489.211 207.321 489.511 207.603 489.732C207.885 489.953 208.226 490.085 208.584 490.113C208.941 490.14 209.298 490.06 209.61 489.884C209.922 489.708 210.175 489.443 210.336 489.123C210.498 488.803 210.561 488.442 210.517 488.087C210.473 487.731 210.325 487.396 210.091 487.125C209.856 486.854 209.547 486.658 209.201 486.563C208.856 486.468 208.49 486.477 208.15 486.59C207.696 486.741 207.32 487.065 207.104 487.493C206.889 487.92 206.851 488.415 207 488.87Z" fill="#F7F3EF" stroke="#070707" stroke-width="4" stroke-linecap="round" stroke-linejoin="round"/>
<path d="M204.861 508.943C205.011 507.96 204.337 507.041 203.355 506.89C202.372 506.739 201.453 507.414 201.302 508.396C201.151 509.379 201.826 510.298 202.808 510.449C203.791 510.6 204.71 509.925 204.861 508.943Z" fill="#F7F3EF" stroke="#070707" stroke-width="4" stroke-linecap="round" stroke-linejoin="round"/>
<path d="M218.1 498.08C218.211 498.421 218.421 498.721 218.703 498.942C218.985 499.163 219.326 499.296 219.684 499.323C220.041 499.35 220.398 499.27 220.71 499.094C221.022 498.918 221.275 498.653 221.437 498.333C221.598 498.013 221.661 497.652 221.617 497.297C221.573 496.941 221.425 496.606 221.191 496.335C220.956 496.064 220.647 495.868 220.302 495.773C219.956 495.678 219.59 495.687 219.25 495.8C218.796 495.951 218.42 496.275 218.204 496.703C217.989 497.13 217.951 497.625 218.1 498.08Z" fill="#F7F3EF" stroke="#070707" stroke-width="4" stroke-linecap="round" stroke-linejoin="round"/>
<path d="M170.41 496.5C170.521 496.841 170.731 497.141 171.013 497.362C171.295 497.583 171.636 497.716 171.994 497.743C172.351 497.77 172.708 497.69 173.02 497.514C173.332 497.338 173.585 497.073 173.747 496.753C173.908 496.433 173.971 496.072 173.927 495.717C173.883 495.361 173.735 495.026 173.501 494.755C173.266 494.484 172.957 494.288 172.612 494.193C172.266 494.098 171.9 494.107 171.56 494.22C171.334 494.294 171.126 494.411 170.945 494.566C170.765 494.72 170.618 494.909 170.511 495.121C170.404 495.333 170.34 495.564 170.323 495.8C170.305 496.037 170.335 496.275 170.41 496.5Z" fill="#F7F3EF" stroke="#070707" stroke-width="4" stroke-linecap="round" stroke-linejoin="round"/>
<path d="M155.73 506.72C155.841 507.061 156.051 507.361 156.333 507.582C156.615 507.803 156.956 507.936 157.314 507.963C157.671 507.99 158.028 507.91 158.34 507.734C158.652 507.558 158.905 507.293 159.066 506.973C159.228 506.653 159.291 506.292 159.247 505.937C159.203 505.581 159.055 505.246 158.82 504.975C158.586 504.704 158.277 504.508 157.931 504.413C157.586 504.318 157.22 504.327 156.88 504.44C156.426 504.591 156.05 504.915 155.834 505.343C155.619 505.77 155.581 506.265 155.73 506.72Z" fill="#F7F3EF" stroke="#070707" stroke-width="4" stroke-linecap="round" stroke-linejoin="round"/>
<path d="M174.6 525.21C174.711 525.551 174.921 525.851 175.203 526.072C175.485 526.293 175.826 526.426 176.184 526.453C176.541 526.48 176.898 526.4 177.21 526.224C177.522 526.048 177.775 525.783 177.937 525.463C178.098 525.143 178.161 524.782 178.117 524.427C178.073 524.071 177.925 523.736 177.691 523.465C177.456 523.194 177.147 522.998 176.801 522.903C176.456 522.808 176.09 522.817 175.75 522.93C175.524 523.004 175.315 523.121 175.135 523.276C174.955 523.43 174.808 523.619 174.701 523.831C174.594 524.043 174.53 524.274 174.513 524.51C174.495 524.747 174.525 524.985 174.6 525.21Z" fill="#F7F3EF" stroke="#070707" stroke-width="4" stroke-linecap="round" stroke-linejoin="round"/>
<path d="M177.28 438.36C177.393 438.697 177.603 438.994 177.885 439.212C178.166 439.429 178.505 439.559 178.86 439.584C179.215 439.609 179.57 439.528 179.879 439.352C180.188 439.176 180.438 438.912 180.597 438.593C180.756 438.275 180.817 437.917 180.773 437.564C180.728 437.211 180.58 436.879 180.347 436.61C180.114 436.341 179.807 436.147 179.464 436.053C179.121 435.958 178.758 435.968 178.42 436.08C178.195 436.155 177.987 436.273 177.808 436.428C177.629 436.583 177.483 436.772 177.377 436.983C177.271 437.195 177.208 437.426 177.191 437.662C177.175 437.898 177.205 438.135 177.28 438.36Z" fill="#F7F3EF" stroke="#070707" stroke-width="4" stroke-linecap="round" stroke-linejoin="round"/>
<path d="M203.44 459.88C204.434 459.88 205.24 459.074 205.24 458.08C205.24 457.086 204.434 456.28 203.44 456.28C202.446 456.28 201.64 457.086 201.64 458.08C201.64 459.074 202.446 459.88 203.44 459.88Z" fill="#F7F3EF" stroke="#070707" stroke-width="4" stroke-linecap="round" stroke-linejoin="round"/>
<path d="M195.39 439.52C195.501 439.861 195.711 440.161 195.993 440.382C196.275 440.603 196.616 440.736 196.974 440.763C197.331 440.79 197.688 440.71 198 440.534C198.312 440.358 198.565 440.093 198.726 439.773C198.888 439.453 198.951 439.092 198.907 438.737C198.863 438.381 198.715 438.046 198.48 437.775C198.246 437.504 197.937 437.308 197.591 437.213C197.246 437.118 196.88 437.127 196.54 437.24C196.086 437.391 195.71 437.715 195.494 438.143C195.279 438.57 195.241 439.065 195.39 439.52Z" fill="#F7F3EF" stroke="#070707" stroke-width="4" stroke-linecap="round" stroke-linejoin="round"/>
<path d="M410.65 191.69C409.4 190.27 409.12 220.62 413.94 242.51C422.79 282.68 451.26 291.37 456.76 291.78C488.66 294.12 511.51 260.13 511.62 249.07C511.73 238.01 511.48 229.81 511.48 229.81C511.48 229.81 533.37 217.22 522.82 204.67C516.1 196.69 469.83 177.34 410.65 191.69Z" fill="#C48270" stroke="#0F0F0F" stroke-width="4" stroke-linecap="round" stroke-linejoin="round"/>
<path d="M410.65 191.69L403.82 162.13C403.82 162.13 455.05 138 527.24 176.35L522.82 204.67C522.82 204.67 476.59 177.38 410.65 191.69Z" fill="#F7F3EF" stroke="#070707" stroke-width="4" stroke-linecap="round" stroke-linejoin="round"/>
<path d="M382 143.29C388.66 156.12 400.45 163.67 403.85 162.13C422.18 153.84 448.23 154.53 457.03 155.05C491.11 192.72 576.03 249.48 569.6 174.72C563.18 99.57 429.29 56.23 389.75 87.72C382.42 93.56 366.06 112.67 382 143.29Z" fill="#F7F3EF" stroke="#070707" stroke-width="4" stroke-linecap="round" stroke-linejoin="round"/>
<path d="M557.89 211.1C524.66 213.15 482.98 181.36 458.89 156.46C458.89 156.46 458.89 156.46 458.84 156.41L458.29 155.9C440.52 139.18 418.83 97.53 376.29 113.57" stroke="#070707" stroke-width="4" stroke-linecap="round" stroke-linejoin="round"/>
<path d="M461.29 188C461.29 188 430.18 216.2 406.56 205.58C380.23 193.75 402.65 175.07 408.9 184.16C417.23 196.24 433 183.89 461.29 188Z" fill="#1C0E0C"/>
<path d="M482.64 190.82C482.64 190.82 494.64 192.1 498.33 206.82C502.02 221.54 509.84 213.71 509.84 213.71C509.84 213.71 510.49 198.83 514.29 200.55C504.345 195.592 493.652 192.305 482.64 190.82Z" fill="#1C0E0C"/>
<path d="M694.5 326.4C694.98 349.88 677.69 508.4 653.43 529.97C628.62 551.97 521 566.92 435.36 574.47C435.36 574.47 442.62 540.76 410.19 535.18C410.19 535.18 527.76 480.34 558.84 477.43C558.84 477.43 584.67 345.84 601.23 316.17C626.9 270.15 693.15 261 694.5 326.4Z" fill="#EFAF00"/>
<path d="M462.2 510C497.72 496.24 547.29 479 564.44 477.4C564.44 477.4 577.55 363.06 594.11 333.4" stroke="black" stroke-width="4" stroke-linecap="round" stroke-linejoin="round"/>
<path d="M703.06 325.31C705.37 399.4 676.65 515.54 644.06 539.4C634.06 546.75 472.73 571.82 461.97 572.58" stroke="black" stroke-width="4" stroke-linecap="round" stroke-linejoin="round"/>
<path d="M435.23 573.77C429.36 579.13 398.87 599.35 383.23 602.22C373.41 604.03 355.41 597.67 353.23 596.33C351.05 594.99 338.42 578.25 338.42 578.25C338.42 578.25 345.71 571.03 353.78 577.85C364.15 586.63 374.14 582.21 380.63 576.76C383.33 574.49 386.55 568.32 382.86 565.17C379.17 562.02 369.41 570.37 365.39 570.68C357.22 571.31 354.84 567.38 354.84 567.38C354.84 567.38 371.3 551.38 374.58 548.98C377.86 546.58 397.25 535.18 414.58 535.43C428.41 535.63 448.83 561.33 435.23 573.77Z" fill="#C48270" stroke="#0F0F0F" stroke-width="4" stroke-linecap="round" stroke-linejoin="round"/>
<path d="M410.19 535.18L432 525.26C432 525.26 460.11 535.46 462 574.06L435.37 574.47C435.37 574.47 431.17 544.46 410.19 535.18Z" fill="#EFAF00" stroke="black" stroke-width="4" stroke-linecap="round" stroke-linejoin="round"/>
<path d="M512.73 227.5C519.888 227.5 525.69 221.698 525.69 214.54C525.69 207.382 519.888 201.58 512.73 201.58C505.572 201.58 499.77 207.382 499.77 214.54C499.77 221.698 505.572 227.5 512.73 227.5Z" fill="#C48270"/>
<path d="M504.34 218.73C504.34 218.73 508.23 207.35 516.23 207.94" stroke="#070707" stroke-width="4" stroke-linecap="round" stroke-linejoin="round"/>
<path d="M509.84 213.67L514.29 216.88" stroke="#070707" stroke-width="4" stroke-linecap="round" stroke-linejoin="round"/>
<path d="M442.36 220.06L435.94 242.74L449.49 249.82" stroke="#070707" stroke-width="4" stroke-linecap="round" stroke-linejoin="round"/>
<path d="M462.56 223.46C464.659 223.46 466.36 221.342 466.36 218.73C466.36 216.118 464.659 214 462.56 214C460.461 214 458.76 216.118 458.76 218.73C458.76 221.342 460.461 223.46 462.56 223.46Z" fill="#070707"/>
<path d="M426.59 230.23C428.689 230.23 430.39 228.112 430.39 225.5C430.39 222.888 428.689 220.77 426.59 220.77C424.491 220.77 422.79 222.888 422.79 225.5C422.79 228.112 424.491 230.23 426.59 230.23Z" fill="#070707"/>
<path d="M446.86 265C452.001 266.47 457.51 265.902 462.243 263.413C466.975 260.925 470.567 256.708 472.27 251.64" stroke="#0F0F0F" stroke-width="4" stroke-linecap="round" stroke-linejoin="round"/>
</g>
<defs>
<clipPath id="clip0_1_52">
<rect width="1051.1" height="1340.81" fill="white"/>
</clipPath>
</defs>
</svg>
